<svg width="40" height="40" viewBox="0 0 40 40" fill="none" xmlns="http://www.w3.org/2000/svg">
<rect x="0.5" y="0.5" width="39" height="39" rx="4.5" stroke="#333333"/>
<path d="M16.0515 8L11.783 15.6635H10.1502C9.79139 15.6635 9.45447 15.8358 9.23599 16.1272C9.01865 16.4197 8.94621 16.7996 9.0405 17.1535L12.2591 29.2611C12.5305 30.2851 13.4435 31 14.4784 31H26.5214C27.554 31 28.467 30.2863 28.7407 29.2599L31.9593 17.1523C32.0536 16.7984 31.9823 16.4185 31.7638 16.126C31.5442 15.8358 31.2073 15.6635 30.8485 15.6635H29.2156L24.9472 8L22.9509 9.17029L26.5674 15.6635H14.4313L18.0477 9.17029L16.0515 8ZM22.7991 20.3824H25.099V26.2811H22.7991V20.3824ZM15.8997 20.3824H18.1995V26.2811H15.8997V20.3824Z" fill="#333333"/>
</svg>
