<svg width="77" height="66" viewBox="0 0 77 66" fill="none" xmlns="http://www.w3.org/2000/svg">
<path d="M38.5 26.6538C32.1234 26.6538 26.95 31.7704 26.95 38.0769C26.95 44.3834 32.1234 49.5 38.5 49.5C44.8765 49.5 50.05 44.3834 50.05 38.0769C50.05 31.7704 44.8765 26.6538 38.5 26.6538ZM66.7333 10.1538H57.75L55.7047 4.75961C54.7021 2.14183 51.574 0 48.7667 0H28.2333C25.426 0 22.2979 2.14183 21.2953 4.75961L19.25 10.1538H10.2667C4.61197 10.1538 0 14.7151 0 20.3077V55.8462C0 61.4387 4.61197 66 10.2667 66H66.7333C72.388 66 77 61.4387 77 55.8462V20.3077C77 14.7151 72.388 10.1538 66.7333 10.1538ZM38.5 55.8462C28.5943 55.8462 20.5333 47.8738 20.5333 38.0769C20.5333 28.2801 28.5943 20.3077 38.5 20.3077C48.4057 20.3077 56.4667 28.2801 56.4667 38.0769C56.4667 47.8738 48.4057 55.8462 38.5 55.8462Z" fill="white"/>
</svg>
