<svg width="40" height="40" viewBox="0 0 40 40" fill="none" xmlns="http://www.w3.org/2000/svg">
<path d="M40 34.1466C40 37.3794 37.3927 40 34.1764 40H5.8235C2.60724 40 0 37.3794 0 34.1466V5.85337C0 2.62061 2.60734 0 5.8235 0H34.1764C37.3927 0 40 2.62072 40 5.85337V34.1466Z" fill="#D8D8D8"/>
<path d="M40 34.1466C40 37.3794 37.3927 40 34.1764 40H5.8235C2.60724 40 0 37.3794 0 34.1466V5.85337C0 2.62061 2.60734 0 5.8235 0H34.1764C37.3927 0 40 2.62072 40 5.85337V34.1466Z" fill="#D8D8D8"/>
<path d="M19.997 15.9983C17.7935 15.9983 15.9953 17.7965 15.9953 20C15.9953 22.2035 17.7935 24.0017 19.997 24.0017C22.2005 24.0017 23.9987 22.2035 23.9987 20C23.9987 17.7965 22.2005 15.9983 19.997 15.9983ZM31.9992 20C31.9992 18.3429 32.0142 16.7008 31.921 15.0466C31.828 13.1253 31.3897 11.4202 29.9847 10.0152C28.5768 8.6073 26.8747 8.17201 24.9533 8.07895C23.2962 7.98588 21.6541 8.00089 20 8.00089C18.3429 8.00089 16.7008 7.98588 15.0466 8.07895C13.1253 8.17201 11.4202 8.6103 10.0152 10.0152C8.6073 11.4232 8.17201 13.1253 8.07894 15.0466C7.98588 16.7038 8.00089 18.3459 8.00089 20C8.00089 21.6541 7.98588 23.2992 8.07894 24.9533C8.17201 26.8746 8.6103 28.5798 10.0152 29.9848C11.4232 31.3927 13.1253 31.8279 15.0466 31.9211C16.7038 32.0141 18.3459 31.9991 20 31.9991C21.6571 31.9991 23.2992 32.0141 24.9533 31.9211C26.8747 31.8279 28.5798 31.3897 29.9847 29.9848C31.3926 28.5767 31.828 26.8746 31.921 24.9533C32.017 23.2992 31.9992 21.6571 31.9992 20ZM19.997 26.1571C16.5897 26.1571 13.8398 23.4073 13.8398 20C13.8398 16.5927 16.5897 13.8428 19.997 13.8428C23.4043 13.8428 26.1542 16.5927 26.1542 20C26.1542 23.4073 23.4043 26.1571 19.997 26.1571ZM26.4063 15.0286C25.6108 15.0286 24.9683 14.3862 24.9683 13.5907C24.9683 12.7951 25.6108 12.1527 26.4063 12.1527C27.2019 12.1527 27.8444 12.7951 27.8444 13.5907C27.8446 13.7796 27.8075 13.9667 27.7352 14.1412C27.6632 14.3158 27.5571 14.4744 27.4236 14.608C27.2901 14.7416 27.1314 14.8475 26.9569 14.9197C26.7823 14.9918 26.5951 15.0289 26.4063 15.0286Z" fill="white"/>
</svg>
