<svg width="23" height="23" viewBox="0 0 23 23" fill="none" xmlns="http://www.w3.org/2000/svg">
<path d="M7.05148 0L2.78303 7.66352H1.15016C0.79139 7.66352 0.454467 7.83576 0.235985 8.12715C0.0186528 8.41973 -0.0537912 8.7996 0.0405012 9.15352L3.25909 21.2611C3.53047 22.2851 4.44349 23 5.47841 23H17.5214C18.554 23 19.467 22.2863 19.7407 21.2599L22.9593 9.15234C23.0536 8.79842 22.9823 8.41855 22.7638 8.12597C22.5442 7.83576 22.2073 7.66352 21.8485 7.66352H20.2156L15.9472 0L13.9509 1.17029L17.5674 7.66352H5.43126L9.04772 1.17029L7.05148 0ZM13.7991 12.3824H16.099V18.2811H13.7991V12.3824ZM6.8997 12.3824H9.19951V18.2811H6.8997V12.3824Z" fill="white"/>
</svg>
