<svg width="40" height="40" viewBox="0 0 40 40" fill="none" xmlns="http://www.w3.org/2000/svg">
<path d="M40 34.1466C40 37.3794 37.3927 40 34.1764 40H5.82351C2.60724 40 0 37.3794 0 34.1466V5.85337C0 2.62061 2.60734 0 5.82351 0H34.1764C37.3927 0 40 2.62072 40 5.85337V34.1466Z" fill="#D8D8D8"/>
<path d="M40 34.1466C40 37.3794 37.3927 40 34.1764 40H5.82351C2.60724 40 0 37.3794 0 34.1466V5.85337C0 2.62061 2.60734 0 5.82351 0H34.1764C37.3927 0 40 2.62072 40 5.85337V34.1466Z" fill="#D8D8D8"/>
<path d="M19.7761 6C16.01 6 12.957 9.0687 12.957 12.854C12.957 16.6394 16.01 19.7083 19.7761 19.7083C23.5422 19.7083 26.5951 16.6394 26.5951 12.854C26.5951 9.0687 23.5422 6 19.7761 6ZM19.7761 15.6875C18.2193 15.6875 16.9572 14.4189 16.9572 12.8541C16.9572 11.2894 18.2193 10.0208 19.7761 10.0208C21.3329 10.0208 22.5949 11.2894 22.5949 12.8541C22.5949 14.4189 21.3329 15.6875 19.7761 15.6875Z" fill="white"/>
<path d="M22.1835 25.1618C24.9134 24.6029 26.5494 23.3034 26.6359 23.2337C27.4347 22.5898 27.5631 21.4168 26.9224 20.6138C26.2819 19.8109 25.115 19.6819 24.316 20.3257C24.2991 20.3395 22.5543 21.6848 19.6835 21.6868C16.8127 21.6848 15.031 20.3395 15.0141 20.3257C14.2151 19.6819 13.0483 19.8109 12.4077 20.6138C11.7671 21.4168 11.8954 22.5898 12.6942 23.2337C12.782 23.3044 14.4854 24.6377 17.2919 25.1835L13.3805 29.2921C12.6697 30.0331 12.6911 31.2128 13.4283 31.9273C13.7881 32.276 14.2518 32.4493 14.7151 32.4493C15.2009 32.4493 15.6862 32.2585 16.05 31.8792L19.6836 27.9887L23.6842 31.9044C24.409 32.6318 25.5828 32.6307 26.3063 31.9024C27.0298 31.174 27.0289 29.994 26.3042 29.2668L22.1835 25.1618Z" fill="white"/>
</svg>
