<svg width="60" height="60" viewBox="0 0 60 60" fill="none" xmlns="http://www.w3.org/2000/svg">
<path d="M27.8076 7.2104C28.4664 5.04391 31.5336 5.04391 32.1924 7.2104C32.7317 8.98419 35.0446 9.41654 36.1882 7.95735C37.5851 6.17513 40.4452 7.28315 40.2769 9.5413C40.139 11.3901 42.1395 12.6288 43.7331 11.6813C45.6794 10.524 47.9462 12.5904 46.9734 14.6353C46.177 16.3095 47.595 18.1871 49.4232 17.8793C51.6562 17.5033 53.0234 20.249 51.3776 21.8043C50.0302 23.0778 50.6741 25.3409 52.4901 25.7142C54.7081 26.1703 54.9911 29.2244 52.8947 30.0802C51.1782 30.7809 50.9611 33.1238 52.5196 34.128C54.4231 35.3545 53.5837 38.3046 51.3197 38.3453C49.466 38.3787 48.4172 40.4849 49.5077 41.9843C50.8396 43.8155 48.9912 46.2633 46.8653 45.4833C45.1248 44.8448 43.3859 46.43 43.8612 48.222C44.4416 50.4107 41.8338 52.0254 40.1332 50.5302C38.7409 49.3061 36.5468 50.156 36.3426 51.9987C36.0932 54.2494 33.0782 54.813 32.0325 52.8044C31.1765 51.1599 28.8235 51.1599 27.9675 52.8044C26.9218 54.813 23.9068 54.2494 23.6574 51.9987C23.4532 50.156 21.2591 49.3061 19.8668 50.5302C18.1662 52.0254 15.5584 50.4107 16.1388 48.222C16.6141 46.43 14.8752 44.8448 13.1347 45.4833C11.0088 46.2633 9.16039 43.8155 10.4923 41.9843C11.5828 40.4849 10.534 38.3787 8.68034 38.3453C6.41629 38.3046 5.5769 35.3545 7.48041 34.128C9.03889 33.1238 8.82179 30.7809 7.10533 30.0802C5.00886 29.2244 5.29188 26.1703 7.5099 25.7142C9.32589 25.3409 9.9698 23.0778 8.62236 21.8043C6.97663 20.249 8.34382 17.5033 10.5768 17.8793C12.405 18.1871 13.823 16.3095 13.0266 14.6353C12.0538 12.5904 14.3206 10.524 16.2669 11.6813C17.8605 12.6288 19.861 11.3901 19.7231 9.5413C19.5548 7.28315 22.4149 6.17513 23.8118 7.95736C24.9554 9.41654 27.2683 8.98419 27.8076 7.2104Z" fill="#C0384E"/>
<path d="M30 19.3875L32.5253 24.8623C32.8166 25.4939 33.4152 25.9288 34.1059 26.0107L40.0931 26.7206L35.6666 30.814C35.1559 31.2863 34.9273 31.99 35.0629 32.6722L36.2379 38.5857L30.9769 35.6408C30.3699 35.3011 29.6301 35.3011 29.0231 35.6408L23.7621 38.5857L24.9371 32.6722C25.0727 31.99 24.8441 31.2863 24.3334 30.814L19.9069 26.7206L25.8941 26.0107C26.5848 25.9288 27.1834 25.4939 27.4747 24.8623L30 19.3875Z" stroke="white" stroke-width="2"/>
</svg>
