<svg width="23" height="21" viewBox="0 0 23 21" fill="none" xmlns="http://www.w3.org/2000/svg">
<path d="M20.9547 9.89751L20.9546 9.8974L20.9463 9.90652L11.5 20.2582L2.05374 9.90652L2.05386 9.9064L2.04483 9.89701C1.09109 8.90503 0.5 7.528 0.5 6.00042C0.5 4.4732 1.09085 3.09872 2.0453 2.10334L2.04577 2.10284C2.99672 1.10837 4.30524 0.500077 5.74972 0.5C5.75002 0.500003 5.75062 0.500008 5.75149 0.50002L5.76748 0.500398C5.78337 0.500889 5.80957 0.501976 5.84541 0.504379C5.9171 0.509185 6.02724 0.51925 6.17036 0.540303C6.45667 0.582419 6.87438 0.668416 7.38028 0.843941C8.38995 1.19425 9.75773 1.90338 11.139 3.3447L11.5 3.72139L11.861 3.3447C13.2423 1.90338 14.61 1.19425 15.6197 0.843941C16.1256 0.668416 16.5433 0.582419 16.8296 0.540303C16.9728 0.51925 17.0829 0.509185 17.1546 0.504379C17.1904 0.501976 17.2166 0.500889 17.2325 0.500398L17.2485 0.50002C17.2494 0.500008 17.25 0.500003 17.2503 0.5C18.6942 0.500082 20.0031 1.11089 20.9547 2.10333L20.9547 2.10334C21.9091 3.09863 22.5 4.47599 22.5 6.00042C22.5 7.52465 21.9063 8.90499 20.9547 9.89751Z" fill="#C0384E" stroke="#C0384E"/>
</svg>
