<svg width="23" height="20" viewBox="0 0 23 20" fill="none" xmlns="http://www.w3.org/2000/svg">
<path d="M16.7816 3.25197L16.9031 3.57692H17.25H19.9333C21.3447 3.57692 22.5 4.7337 22.5 6.15385V16.9231C22.5 18.3432 21.3447 19.5 19.9333 19.5H3.06666C1.65532 19.5 0.5 18.3432 0.5 16.9231V6.15385C0.5 4.7337 1.65532 3.57692 3.06666 3.57692H5.75H6.0969L6.21835 3.25197L6.82871 1.6189C6.82881 1.61865 6.82891 1.61839 6.82901 1.61813C6.93618 1.33486 7.17005 1.05008 7.48049 0.834151C7.79146 0.617855 8.13699 0.5 8.43333 0.5H14.5667C14.863 0.5 15.2085 0.617856 15.5195 0.834151C15.83 1.05009 16.0639 1.3349 16.171 1.61819C16.1711 1.61843 16.1712 1.61866 16.1713 1.6189L16.7816 3.25197ZM8.55 11.5385C8.55 9.90197 9.87302 8.57692 11.5 8.57692C13.127 8.57692 14.45 9.90197 14.45 11.5385C14.45 13.175 13.127 14.5 11.5 14.5C9.87302 14.5 8.55 13.175 8.55 11.5385ZM5.63333 11.5385C5.63333 14.7818 8.26343 17.4231 11.5 17.4231C14.7366 17.4231 17.3667 14.7818 17.3667 11.5385C17.3667 8.29515 14.7366 5.65385 11.5 5.65385C8.26343 5.65385 5.63333 8.29515 5.63333 11.5385Z" stroke="#C0384E"/>
</svg>
