<svg width="33" height="30" viewBox="0 0 33 30" fill="none" xmlns="http://www.w3.org/2000/svg">
<path d="M30.5833 14.6336C32.0746 13.0849 33 10.9367 33 8.57202C33 6.20733 32.0787 4.06328 30.5833 2.51041C29.0919 0.961698 27.0304 4.17366e-07 24.75 4.17366e-07C24.75 4.17366e-07 20.6353 -0.0124897 16.5 4.28393C12.3647 -0.0124897 8.25 4.17366e-07 8.25 4.17366e-07C5.96958 4.17366e-07 3.90811 0.957535 2.41675 2.51041C0.921257 4.06328 0 6.20316 0 8.57202C0 10.9409 0.921257 13.0849 2.41675 14.6336L16.5 30L30.5833 14.6336Z" fill="#C4C4C4"/>
</svg>
