<svg width="60" height="60" viewBox="0 0 60 60" fill="none" xmlns="http://www.w3.org/2000/svg">
<path d="M27.8076 7.2104C28.4664 5.04391 31.5336 5.04391 32.1924 7.2104C32.7317 8.98419 35.0446 9.41654 36.1882 7.95735C37.5851 6.17513 40.4452 7.28315 40.2769 9.5413C40.139 11.3901 42.1395 12.6288 43.7331 11.6813C45.6794 10.524 47.9462 12.5904 46.9734 14.6353C46.177 16.3095 47.595 18.1871 49.4232 17.8793C51.6562 17.5033 53.0234 20.249 51.3776 21.8043C50.0302 23.0778 50.6741 25.3409 52.4901 25.7142C54.7081 26.1703 54.9911 29.2244 52.8947 30.0802C51.1782 30.7809 50.9611 33.1238 52.5196 34.128C54.4231 35.3545 53.5837 38.3046 51.3197 38.3453C49.466 38.3787 48.4172 40.4849 49.5077 41.9843C50.8396 43.8155 48.9912 46.2633 46.8653 45.4833C45.1248 44.8448 43.3859 46.43 43.8612 48.222C44.4416 50.4107 41.8338 52.0254 40.1332 50.5302C38.7409 49.3061 36.5468 50.156 36.3426 51.9987C36.0932 54.2494 33.0782 54.813 32.0325 52.8044C31.1765 51.1599 28.8235 51.1599 27.9675 52.8044C26.9218 54.813 23.9068 54.2494 23.6574 51.9987C23.4532 50.156 21.2591 49.3061 19.8668 50.5302C18.1662 52.0254 15.5584 50.4107 16.1388 48.222C16.6141 46.43 14.8752 44.8448 13.1347 45.4833C11.0088 46.2633 9.16039 43.8155 10.4923 41.9843C11.5828 40.4849 10.534 38.3787 8.68034 38.3453C6.41629 38.3046 5.5769 35.3545 7.48041 34.128C9.03889 33.1238 8.82179 30.7809 7.10533 30.0802C5.00886 29.2244 5.29188 26.1703 7.5099 25.7142C9.32589 25.3409 9.9698 23.0778 8.62236 21.8043C6.97663 20.249 8.34382 17.5033 10.5768 17.8793C12.405 18.1871 13.823 16.3095 13.0266 14.6353C12.0538 12.5904 14.3206 10.524 16.2669 11.6813C17.8605 12.6288 19.861 11.3901 19.7231 9.5413C19.5548 7.28315 22.4149 6.17513 23.8118 7.95736C24.9554 9.41654 27.2683 8.98419 27.8076 7.2104Z" fill="#C0384E"/>
<path d="M21.2568 24.0703C21.2568 22.9531 21.6165 22.0391 22.3359 21.3281C23.0553 20.6087 23.999 20.249 25.167 20.249C26.3519 20.249 27.2998 20.6087 28.0107 21.3281C28.7301 22.0391 29.0898 22.9743 29.0898 24.1338V25.0479C29.0898 26.1566 28.7301 27.0664 28.0107 27.7773C27.2998 28.4883 26.3604 28.8438 25.1924 28.8438C24.0498 28.8438 23.1061 28.4967 22.3613 27.8027C21.625 27.1003 21.2568 26.1566 21.2568 24.9717V24.0703ZM23.415 25.0479C23.415 25.6318 23.5758 26.1058 23.8975 26.4697C24.2275 26.8252 24.6592 27.0029 25.1924 27.0029C25.7171 27.0029 26.1403 26.8252 26.4619 26.4697C26.7835 26.1058 26.9443 25.6149 26.9443 24.9971V24.0703C26.9443 23.4863 26.7793 23.0124 26.4492 22.6484C26.1276 22.2845 25.7002 22.1025 25.167 22.1025C24.6338 22.1025 24.2064 22.2887 23.8848 22.6611C23.5716 23.0251 23.415 23.5075 23.415 24.1084V25.0479ZM30.1436 34.4678C30.1436 33.3337 30.5117 32.4154 31.248 31.7129C31.9844 31.0104 32.9238 30.6592 34.0664 30.6592C35.2174 30.6592 36.1569 31.0104 36.8848 31.7129C37.6211 32.4154 37.9893 33.3633 37.9893 34.5566V35.458C37.9893 36.5583 37.6338 37.4681 36.9229 38.1875C36.2204 38.8984 35.2767 39.2539 34.0918 39.2539C32.9069 39.2539 31.9505 38.9027 31.2227 38.2002C30.5033 37.4893 30.1436 36.554 30.1436 35.3945V34.4678ZM32.3018 35.458C32.3018 36.0335 32.4668 36.5075 32.7969 36.8799C33.1354 37.2438 33.5671 37.4258 34.0918 37.4258C34.6335 37.4258 35.0566 37.2523 35.3613 36.9053C35.6745 36.5498 35.8311 36.0547 35.8311 35.4199V34.4678C35.8311 33.8753 35.666 33.4014 35.3359 33.0459C35.0059 32.6904 34.5827 32.5127 34.0664 32.5127C33.5417 32.5127 33.1143 32.6904 32.7842 33.0459C32.4626 33.4014 32.3018 33.8923 32.3018 34.5186V35.458ZM25.8271 37.6162L24.2402 36.7021L33.2666 22.2549L34.8535 23.1689L25.8271 37.6162Z" fill="white"/>
</svg>
