<svg width="116" height="87" viewBox="0 0 116 87" fill="none" xmlns="http://www.w3.org/2000/svg">
<path fill-rule="evenodd" clip-rule="evenodd" d="M40.1939 6C20.7261 6 6 18.3691 6 32.4691C6 39.1317 9.20546 45.3238 14.7012 50.0853C15.7872 51.0262 16.2241 52.5662 15.7009 53.9714L13.4531 60.0084L20.8273 55.9006C21.7862 55.3664 22.9216 55.3214 23.9028 55.7352C28.7341 57.7723 34.2799 58.9382 40.1939 58.9382C59.6617 58.9382 74.3878 46.5691 74.3878 32.4691C74.3878 18.3691 59.6617 6 40.1939 6ZM1 32.4691C1 14.5707 19.1308 1 40.1939 1C61.257 1 79.3878 14.5707 79.3878 32.4691C79.3878 50.3675 61.257 63.9382 40.1939 63.9382C33.8945 63.9382 27.926 62.7476 22.6317 60.6189L12.3303 66.3573C9.48788 67.9407 6.21174 65.1277 7.34706 62.0785L10.6602 53.18C4.7182 47.7196 1 40.4926 1 32.4691Z" fill="white"/>
<path d="M14.7012 50.0853L15.356 49.3295H15.356L14.7012 50.0853ZM15.7009 53.9714L14.7637 53.6225L15.7009 53.9714ZM13.4531 60.0084L12.516 59.6595L11.5691 62.2026L13.9398 60.882L13.4531 60.0084ZM20.8273 55.9006L20.3407 55.027L20.8273 55.9006ZM23.9028 55.7352L23.5143 56.6566H23.5143L23.9028 55.7352ZM22.6317 60.6189L23.0047 59.6911L22.5619 59.513L22.145 59.7453L22.6317 60.6189ZM12.3303 66.3573L11.8437 65.4837L12.3303 66.3573ZM7.34706 62.0785L8.28421 62.4274L7.34706 62.0785ZM10.6602 53.18L11.5974 53.5289L11.832 52.8987L11.3368 52.4437L10.6602 53.18ZM7 32.4691C7 19.1243 21.0508 7 40.1939 7V5C20.4013 5 5 17.6139 5 32.4691H7ZM15.356 49.3295C10.0389 44.7228 7 38.7919 7 32.4691H5C5 39.4715 8.37202 45.9249 14.0464 50.8411L15.356 49.3295ZM16.638 54.3204C17.3117 52.511 16.7468 50.5345 15.356 49.3295L14.0464 50.8411C14.8276 51.5179 15.1365 52.6213 14.7637 53.6225L16.638 54.3204ZM14.3903 60.3573L16.638 54.3204L14.7637 53.6225L12.516 59.6595L14.3903 60.3573ZM20.3407 55.027L12.9665 59.1348L13.9398 60.882L21.3139 56.7742L20.3407 55.027ZM24.2913 54.8137C23.033 54.2831 21.5744 54.3397 20.3407 55.027L21.3139 56.7742C21.998 56.3931 22.8102 56.3597 23.5143 56.6566L24.2913 54.8137ZM40.1939 57.9382C34.4106 57.9382 28.9971 56.798 24.2913 54.8137L23.5143 56.6566C28.4711 58.7467 34.1493 59.9382 40.1939 59.9382V57.9382ZM73.3878 32.4691C73.3878 45.8139 59.337 57.9382 40.1939 57.9382V59.9382C59.9865 59.9382 75.3878 47.3242 75.3878 32.4691H73.3878ZM40.1939 7C59.337 7 73.3878 19.1243 73.3878 32.4691H75.3878C75.3878 17.6139 59.9865 5 40.1939 5V7ZM40.1939 0C18.8166 0 0 13.8072 0 32.4691H2C2 15.3342 19.4449 2 40.1939 2V0ZM80.3878 32.4691C80.3878 13.8072 61.5712 0 40.1939 0V2C60.9429 2 78.3878 15.3342 78.3878 32.4691H80.3878ZM40.1939 64.9382C61.5712 64.9382 80.3878 51.131 80.3878 32.4691H78.3878C78.3878 49.6039 60.9429 62.9382 40.1939 62.9382V64.9382ZM22.2586 61.5467C27.6738 63.724 33.7692 64.9382 40.1939 64.9382V62.9382C34.0199 62.9382 28.1782 61.7712 23.0047 59.6911L22.2586 61.5467ZM12.817 67.2309L23.1183 61.4925L22.145 59.7453L11.8437 65.4837L12.817 67.2309ZM6.40991 61.7295C4.9502 65.65 9.1624 69.2667 12.817 67.2309L11.8437 65.4837C9.81336 66.6147 7.47327 64.6054 8.28421 62.4274L6.40991 61.7295ZM9.72306 52.8311L6.40991 61.7295L8.28421 62.4274L11.5974 53.5289L9.72306 52.8311ZM0 32.4691C0 40.8185 3.87196 48.3 9.98357 53.9163L11.3368 52.4437C5.56445 47.1391 2 40.1668 2 32.4691H0Z" fill="#C0384E"/>
<line x1="32.457" y1="19.0391" x2="49.0952" y2="19.0391" stroke="#C0384E" stroke-width="2" stroke-linecap="round"/>
<line x1="23.1377" y1="25.0533" x2="58.414" y2="25.0533" stroke="#C0384E" stroke-width="2" stroke-linecap="round"/>
<line x1="23.1377" y1="31.0674" x2="58.414" y2="31.0674" stroke="#C0384E" stroke-width="2" stroke-linecap="round"/>
<line x1="23.1377" y1="37.0817" x2="58.414" y2="37.0817" stroke="#C0384E" stroke-width="2" stroke-linecap="round"/>
<line x1="23.1377" y1="43.0958" x2="58.414" y2="43.0958" stroke="#C0384E" stroke-width="2" stroke-linecap="round"/>
<path fill-rule="evenodd" clip-rule="evenodd" d="M76.3061 81.1369C56.0406 81.1369 39.6122 68.167 39.6122 52.1678C39.6122 36.1686 56.0406 23.1987 76.3061 23.1987C96.5716 23.1987 113 36.1686 113 52.1678C113 59.6801 109.378 66.5246 103.437 71.6721C103.116 71.9505 102.995 72.398 103.144 72.7964L106.812 82.6493C107.137 83.5205 106.201 84.3242 105.388 83.8718L94.4575 77.7827C94.1849 77.6308 93.8575 77.6156 93.57 77.7369C88.4245 79.9068 82.5472 81.1369 76.3061 81.1369Z" fill="#C0384E"/>
<path d="M93.57 77.7369L94.5414 80.0404L93.57 77.7369ZM106.812 82.6493L109.155 81.7769L106.812 82.6493ZM105.388 83.8718L106.605 81.6878L105.388 83.8718ZM103.437 71.6721L105.075 73.5615L103.437 71.6721ZM103.144 72.7964L100.801 73.6687L103.144 72.7964ZM42.1122 52.1678C42.1122 66.2678 56.8383 78.6369 76.3061 78.6369V83.6369C55.243 83.6369 37.1122 70.0662 37.1122 52.1678H42.1122ZM76.3061 25.6987C56.8383 25.6987 42.1122 38.0678 42.1122 52.1678H37.1122C37.1122 34.2694 55.243 20.6987 76.3061 20.6987V25.6987ZM110.5 52.1678C110.5 38.0678 95.7739 25.6987 76.3061 25.6987V20.6987C97.3692 20.6987 115.5 34.2694 115.5 52.1678H110.5ZM101.8 69.7827C107.295 65.0214 110.5 58.8298 110.5 52.1678H115.5C115.5 60.5305 111.461 68.0277 105.075 73.5615L101.8 69.7827ZM104.469 83.5216L100.801 73.6687L105.487 71.9241L109.155 81.7769L104.469 83.5216ZM95.6741 75.5987L106.605 81.6878L104.172 86.0558L93.2409 79.9667L95.6741 75.5987ZM76.3061 78.6369C82.2206 78.6369 87.7669 77.4709 92.5985 75.4333L94.5414 80.0404C89.082 82.3427 82.8739 83.6369 76.3061 83.6369V78.6369ZM93.2409 79.9667C93.6546 80.1972 94.1351 80.2117 94.5414 80.0404L92.5985 75.4333C93.5798 75.0195 94.7152 75.0645 95.6741 75.5987L93.2409 79.9667ZM109.155 81.7769C110.29 84.8262 107.014 87.6392 104.172 86.0558L106.605 81.6878C105.387 81.0092 103.983 82.2148 104.469 83.5216L109.155 81.7769ZM105.075 73.5615C105.518 73.1773 105.713 72.5326 105.487 71.9241L100.801 73.6687C100.278 72.2635 100.714 70.7236 101.8 69.7827L105.075 73.5615Z" fill="#C0384E"/>
<line x1="68.5674" y1="33.7864" x2="85.2056" y2="33.7864" stroke="white" stroke-width="2" stroke-linecap="round"/>
<line x1="59.249" y1="41.8978" x2="94.5254" y2="41.8978" stroke="white" stroke-width="2" stroke-linecap="round"/>
<line x1="59.249" y1="50.009" x2="94.5254" y2="50.009" stroke="white" stroke-width="2" stroke-linecap="round"/>
<line x1="59.249" y1="58.1204" x2="94.5254" y2="58.1204" stroke="white" stroke-width="2" stroke-linecap="round"/>
<line x1="59.249" y1="66.2319" x2="94.5254" y2="66.2319" stroke="white" stroke-width="2" stroke-linecap="round"/>
</svg>
