<svg xmlns="http://www.w3.org/2000/svg" width="512" height="512" viewBox="0 0 512 512">
    <path fill="#0055A5"
          d="M512 472c0 22.1-17.9 40-40 40H40c-22.1 0-40-17.9-40-40V40C0 17.9 17.9 0 40 0h432c22.1 0 40 17.9 40 40v432z"/>
    <path fill="#FFF"
          d="M413.9 178c-.2 4.6-.5 9-.6 13.3-.4 12.2-.9 24.4-1.1 36.6-.1 2.6-.7 3.7-3.5 3.5-4.9-.2-9.8-.1-14.7 0-1.9 0-2.5-.6-2.4-2.5.5-13.4 1-26.7 1.4-40.1.4-12.5.8-25 1.3-37.4.3-9.7.6-19.4 1-29.2.9-.1 1.5-.2 2.1-.2 10.2 0 20.3-.2 30.5.1 9.2.2 17.3 3.1 22.9 11.1 3.1 4.4 4.2 9.5 4.8 14.8 1.7 15.8 3.5 31.7 5.3 47.5 1.2 11 2.6 21.9 3.8 32.9.1.9 0 1.7 0 3h-14.8c-5.5 0-5.5 0-6.1-5.4-1.7-15.3-3.3-30.6-4.9-45.9-.1-1.3-.4-2.1-2-2.1-7.7.1-15.2 0-23 0zm.7-18.6h21.1c-.9-16.5-6-20.4-21.1-18.5v18.5zM44.3 122.2h64.8c.1 1 .2 2.1.2 3.1 0 34.2 0 68.5.1 102.7 0 2.7-.8 3.5-3.5 3.4-4.5-.2-9.1-.2-13.6 0-2.8.1-3.4-.9-3.4-3.5.1-28 .1-56 .1-84v-3.3H64.6v87c0 3.7 0 3.7-3.6 3.7H46.3c-1.5 0-2.2-.5-2.2-2.1 0-35.3 0-70.6.1-105.9-.1-.3 0-.5.1-1.1zM206.9 175.7c-.3 12.4-1.7 24.6-6.8 36-3.6 8.1-8.5 15.1-16.8 19-13.5 6.4-28.9 1.9-37-10.7-5.3-8.2-7.7-17.4-8.9-26.9-1.6-12.2-1.6-24.3.5-36.5 1.5-8.7 4.3-16.8 9.1-24.3 11.6-18.1 36-16.9 47.5-1.7 6.4 8.5 9.6 18.2 11.1 28.6.6 5.5.8 11 1.3 16.5zm-51.2 2.6c.4 3.9.7 10.2 1.7 16.4.9 5.8 2.4 11.5 6.2 16.3 3.8 4.8 10.2 5.1 14.1.3 1.9-2.3 3.5-5.2 4.4-8.1 5-16.2 4.9-32.7 1.8-49.1-.8-4.2-2.6-8.4-4.9-11.9-4-6-11.9-5.7-16 .2-1.5 2.2-2.6 4.7-3.5 7.1-3.1 8.5-3.4 17.5-3.8 28.8zM321 280.9h16.1c1.8 0 1.6 1.3 1.6 2.5v35.2c13.9-14.5 27.3-28.4 40.7-42.4.2 0 .5.1.7.1 1.4 37.7 2.8 75.3 4.3 113.4-5.8 0-11.3.1-16.8-.1-.5 0-1.4-1.4-1.5-2.2-.3-5.5-.5-11-.7-16.6-.6-16.7-1.2-33.3-1.7-50 0-.5-.1-1-.1-1.9-.9.8-1.5 1.3-2 1.9-7.2 7.6-14.4 15.1-21.4 22.8-.8.9-1.4 2.5-1.4 3.8-.1 13.1-.1 26.2 0 39.3 0 2.5-.8 3.2-3.2 3.2-4.2-.2-8.4-.1-12.6 0-1.5 0-2.3-.3-2.3-2.1 0-35.1 0-70.3.1-105.4 0-.5.1-.7.2-1.5zM404.6 280.9c5.5 0 10.9-.1 16.3.1.5 0 1.3 1.7 1.3 2.5.1 10.4.1 20.9.1 31.3v3.7c13.9-14.5 27.3-28.5 40.8-42.5.2.1.5.2.7.2 1.4 37.6 2.8 75.2 4.2 113.1h-18.3c-.8-23.4-1.7-46.7-2.5-70.1-.3-.2-.6-.4-1-.7-.4.8-.8 1.6-1.3 2.3-7 7.5-14.1 14.9-21 22.5-.9 1-1.5 2.6-1.5 4-.1 13.1-.1 26.2 0 39.3 0 2.4-.7 3.1-3 3-4.8-.2-9.6-.1-14.7-.1-.1-36.2-.1-72.2-.1-108.6zM169 331.9c-.4 15.3-1.3 27.9-6.5 39.7-1.8 4-4.1 8-6.9 11.3-10.8 12.8-29.2 11.8-38.7-2-5.1-7.4-7.5-15.9-8.8-24.7-2.5-17-2.5-33.9 1.9-50.6 1.7-6.4 4.3-12.5 8.4-17.8 10-12.9 28-12.8 38.2 0 6.4 8 9.3 17.4 10.8 27.2 1 6.4 1.3 13 1.6 16.9zm-17.6 2.5c-.2 0-.4-.1-.6-.1-.2-4.8-.5-9.6-.7-14.4-.1-1.5-.3-3-.5-4.5-.9-5.3-1.8-10.6-5-15.1-4.1-5.8-11.1-5.8-14.6.3-1.9 3.4-3.3 7.3-4.2 11.2-3 13.5-2.9 27.2-1 40.9.8 5.8 2.1 11.6 5.3 16.6 3.8 6 10.7 5.9 14.2-.3 1.6-2.8 3-5.8 3.6-8.8 1.4-8.5 2.4-17.2 3.5-25.8zM228.2 122.2h20.4c.1 1.1.1 2.1.1 3.2v25.2c0 5.3 2.4 8.3 7.6 8.9 4.4.5 8.9.4 13.3.5 1.9.1 1.8-1.3 1.8-2.5v-31.8-3.3h20.3c.1 1 .3 2 .3 3 0 34.2 0 68.5.1 102.7 0 2.8-.9 3.5-3.5 3.4-4.5-.2-9.1-.2-13.6 0-2.6.1-3.5-.6-3.5-3.4.2-15.4 0-30.9.1-46.3 0-2.6-.8-3.2-3.3-3.2-6 0-12 .3-17.9-.6-13.5-2.1-22.1-12.6-22.1-26.2-.1-9.9-.1-19.6-.1-29.6zM44 280.9c9.4.5 18.8-1.2 27.8 1.3 8.7 2.4 14.2 8.5 17.8 16.5 4.1 9.1 5.2 18.8 4.7 28.7-.4 7.8-1.2 15.5-4.6 22.6-1.2 2.5-2.8 5-4.6 7.2-5.5 6.4-13.6 7.4-20.7 2.8-.7-.4-1.3-.9-2.4-1.5v30.7H43.9c.1-36 .1-72 .1-108.3zm17.2 35.4h.3c0 5.8-.4 11.6.1 17.3.3 3.1 1.6 6.4 3.2 9.1 1.7 3 5.5 3 7.7.3 1.4-1.8 2.6-4.1 3.1-6.4 1.7-6.9 1.1-14 .4-21-.5-4.7-1.4-9.3-4-13.4-1.9-3-4.3-5.1-8.1-5.5-2-.2-2.7.4-2.7 2.4.1 5.8 0 11.5 0 17.2zM304 373.7c0 6 0 11.8-.1 17.6 0 .5-1.2 1.5-1.8 1.5-27.6 0-46.3-16.9-51.2-42.1-3-15.3-2.2-30.4 4.2-44.8 7.3-16.3 20.5-24.8 38-27 3.4-.4 6.9-.5 10.8-.8v13.5c0 5.9 0 5.7-5.9 6.2-11.2 1-20.1 6.1-24.8 16.5-6.3 13.9-6.4 28.2.3 42.1 5 10.3 13.7 15.6 25 16.7 1.7.2 3.4.4 5.5.6zM236.4 278.2v19.4c-2.6.2-5.1.2-7.5.6-14 2.2-22.5 10.5-25.7 24.1-2.9 12.4-2.6 24.6 4 36 5.3 9.1 13.4 14 23.9 14.9 5.8.5 5.8.4 5.8 6.3 0 3.7-.1 7.3 0 11 0 1.8-.5 2.5-2.5 2.5-27.7-.6-47.1-17.6-51.3-44.9-2.2-14.6-1.4-29 5-42.6 7.4-16 20.5-24.3 37.8-26.4 3.4-.6 6.8-.7 10.5-.9zM332.1 140.5h-16.4v-18.3h53.5v18.2h-16.6v3.7c0 27.9 0 55.8.1 83.8 0 2.6-.6 3.7-3.4 3.5-4.6-.2-9.3-.2-13.9 0-2.8.1-3.4-.9-3.4-3.5.1-28 .1-56 .1-84v-3.4z"/>
</svg>