<svg width="40" height="40" viewBox="0 0 40 40" fill="none" xmlns="http://www.w3.org/2000/svg">
<rect x="0.5" y="0.5" width="39" height="39" rx="4.5" stroke="#C4C4C4"/>
<path d="M28.4055 20.4145L28.4054 20.4144L28.3973 20.4236L19.6667 30.2473L10.9361 20.4236L10.9362 20.4235L10.9273 20.414C10.0476 19.4745 9.5 18.1674 9.5 16.7147C9.5 15.2623 10.0473 13.9577 10.9278 13.0149L10.9282 13.0144C11.8052 12.0727 13.0082 11.5001 14.3329 11.5C14.3331 11.5 14.3335 11.5 14.334 11.5L14.348 11.5004C14.3622 11.5008 14.3859 11.5018 14.4185 11.5041C14.4838 11.5085 14.5847 11.518 14.7161 11.5378C14.9789 11.5775 15.3634 11.6588 15.8297 11.8249C16.7599 12.1563 18.0235 12.8282 19.3011 14.1971L19.6667 14.5887L20.0322 14.1971C21.3098 12.8282 22.5734 12.1563 23.5036 11.8249C23.9699 11.6588 24.3544 11.5775 24.6173 11.5378C24.7487 11.518 24.8495 11.5085 24.9148 11.5041C24.9475 11.5018 24.9712 11.5008 24.9853 11.5004L24.9993 11.5C24.9998 11.5 25.0002 11.5 25.0005 11.5C26.3245 11.5001 27.528 12.0751 28.4055 13.0149L28.4056 13.0149C29.2859 13.9576 29.8333 15.265 29.8333 16.7147C29.8333 18.1642 29.2834 19.4744 28.4055 20.4145Z" stroke="#C4C4C4"/>
</svg>
