<svg width="138" height="78" viewBox="0 0 138 78" fill="none" xmlns="http://www.w3.org/2000/svg">
<path d="M75.0756 62.7655C72.4469 62.7655 70.3086 64.8156 70.3086 67.3359C70.3086 69.8561 72.4469 71.9062 75.0756 71.9062C77.7042 71.9062 79.8426 69.8561 79.8426 67.3359C79.8426 64.8156 77.7042 62.7655 75.0756 62.7655ZM75.0756 68.8593C74.1991 68.8593 73.4866 68.1761 73.4866 67.3359C73.4866 66.4956 74.1991 65.8124 75.0756 65.8124C75.952 65.8124 76.6646 66.4956 76.6646 67.3359C76.6646 68.1761 75.952 68.8593 75.0756 68.8593Z" fill="#C0384E"/>
<path d="M133.233 62.7656H130.691V29.8594C130.691 29.0179 129.979 28.3359 129.102 28.3359H121.157V7.61719C121.157 6.77573 120.445 6.09375 119.568 6.09375C112.873 6.09375 94.0016 6.09375 87.7878 6.09375C86.9101 6.09375 86.1988 6.77573 86.1988 7.61719V62.7656H85.1269C84.0276 60.5358 82.1692 58.7541 79.8429 57.6996V4.57031C79.8429 2.05009 77.7045 0 75.0759 0H61.4105C58.7819 0 56.6436 2.05009 56.6436 4.57031C56.6436 7.09053 58.7819 9.14062 61.4105 9.14062H70.3089V57.6996C66.4655 59.4492 63.9529 63.1935 63.9529 67.3359C63.9529 73.216 68.9427 78 75.0759 78C79.3966 78 83.302 75.5911 85.1269 71.9062H133.233C135.862 71.9062 138 69.8562 138 67.3359C138 64.8157 135.862 62.7656 133.233 62.7656ZM127.513 62.7656H89.3768V31.3828H100.5V47.5312C100.5 48.1085 100.84 48.6357 101.378 48.894C101.916 49.1523 102.56 49.0963 103.042 48.75L108.445 44.8652L113.847 48.75C114.33 49.0969 114.974 49.1517 115.511 48.894C116.05 48.6357 116.39 48.1085 116.39 47.5312V31.3828H127.513V62.7656ZM103.678 31.3828H113.212V44.4844L109.398 41.7422C109.116 41.5393 108.78 41.4375 108.445 41.4375C108.11 41.4375 107.774 41.5393 107.491 41.7422L103.678 44.4844V31.3828ZM100.5 9.14062H106.856V17.8718L104.559 16.4043C104.292 16.2335 103.985 16.1484 103.678 16.1484C103.37 16.1484 103.063 16.2335 102.796 16.4043L100.5 17.8718V9.14062ZM97.3218 9.14062V20.7188C97.3218 21.2805 97.6445 21.7965 98.161 22.0619C98.678 22.3273 99.3049 22.2975 99.7922 21.9863L103.678 19.503L107.563 21.9863C108.051 22.2981 108.679 22.3267 109.195 22.0619C109.711 21.7971 110.034 21.2805 110.034 20.7188V9.14062H117.979V28.3359C109.206 28.3359 98.0387 28.3359 89.3768 28.3359V9.14062H97.3218ZM61.4105 6.09375C60.5341 6.09375 59.8215 5.41058 59.8215 4.57031C59.8215 3.73004 60.5341 3.04688 61.4105 3.04688H75.0759C75.9523 3.04688 76.6649 3.73004 76.6649 4.57031V56.782C76.141 56.71 75.6109 56.6719 75.0759 56.6719C74.5408 56.6719 74.0108 56.71 73.4869 56.782V7.61719C73.4869 6.77573 72.7756 6.09375 71.8979 6.09375H61.4105ZM75.0759 74.9531C70.695 74.9531 67.1309 71.5361 67.1309 67.3359C67.1309 63.181 70.6366 59.7188 75.0759 59.7188C79.5139 59.7188 83.0208 63.1846 83.0208 67.3359C83.0208 71.592 79.4096 74.9531 75.0759 74.9531ZM133.233 68.8594H86.084C86.1591 68.3571 86.1988 67.8489 86.1988 67.3359C86.1988 66.823 86.1585 66.3148 86.084 65.8125H133.233C134.109 65.8125 134.822 66.4957 134.822 67.3359C134.822 68.1762 134.109 68.8594 133.233 68.8594Z" fill="#C0384E"/>
<path d="M122.745 59.7196C123.623 59.7196 124.334 59.0375 124.334 58.1959V55.1486C124.334 54.307 123.623 53.6249 122.745 53.6249C121.868 53.6249 121.156 54.307 121.156 55.1486V58.1959C121.156 59.0375 121.868 59.7196 122.745 59.7196Z" fill="#C0384E"/>
<path d="M122.745 47.5312C123.622 47.5312 124.334 48.2139 124.334 49.055C124.334 49.8961 123.622 50.5788 122.745 50.5788C121.868 50.5788 121.156 49.8961 121.156 49.055C121.156 48.2139 121.868 47.5312 122.745 47.5312Z" fill="#C0384E"/>
<path d="M116.39 53.6249C115.512 53.6249 114.801 54.307 114.801 55.1486V58.1959C114.801 59.0375 115.512 59.7196 116.39 59.7196C117.267 59.7196 117.979 59.0375 117.979 58.1959V55.1486C117.979 54.307 117.267 53.6249 116.39 53.6249Z" fill="#C0384E"/>
<line x1="2" y1="-2" x2="29" y2="-2" transform="matrix(-1 0 0 1 56 45)" stroke="#C0384E" stroke-width="4" stroke-linecap="round"/>
<line x1="2" y1="-2" x2="41" y2="-2" transform="matrix(-1 0 0 1 56 58)" stroke="#C0384E" stroke-width="4" stroke-linecap="round"/>
<line x1="2" y1="-2" x2="54" y2="-2" transform="matrix(-1 0 0 1 56 72)" stroke="#C0384E" stroke-width="4" stroke-linecap="round"/>
</svg>
