<svg width="367" height="150" viewBox="0 0 367 150" fill="none" xmlns="http://www.w3.org/2000/svg">
<path d="M31.2598 135.054C31.3952 135.19 31.3952 135.326 31.3952 135.326C31.3952 135.734 31.1245 136.141 30.7185 136.549C30.1772 137.092 29.6359 137.5 28.824 137.772C28.012 138.179 27.0648 138.315 26.1175 138.315C24.223 138.315 22.5991 137.636 21.5165 136.413C20.4339 135.19 19.8926 133.56 19.8926 131.658C19.8926 129.62 20.5692 127.989 21.7871 126.63C23.005 125.272 24.6289 124.728 26.5235 124.728C27.3354 124.728 28.1474 124.864 28.9593 125.136C29.6359 125.408 30.1772 125.543 30.4479 125.815C30.7185 125.951 30.8539 126.223 30.8539 126.495C30.8539 127.038 30.5832 127.31 30.0419 127.31C29.7713 127.31 29.6359 127.174 29.5006 127.038C29.0946 126.63 28.6887 126.359 28.418 126.223C27.7414 125.815 27.0648 125.679 26.3882 125.679C25.1702 125.679 24.0876 126.223 23.1404 127.31C22.3284 128.397 21.9224 129.755 21.9224 131.522C21.9224 133.288 22.3284 134.647 23.2757 135.598C24.0876 136.685 25.3056 137.228 26.6588 137.228C27.3354 137.228 28.012 137.092 28.5533 136.821C29.23 136.549 29.6359 136.277 30.0419 135.87C30.1772 135.598 30.4479 135.326 30.4479 135.19C30.7185 134.918 30.8539 134.783 30.9892 134.783C30.9892 134.918 31.1245 134.918 31.2598 135.054Z" fill="#333333"/>
<path d="M39.244 128.804C39.65 128.804 39.7853 129.076 39.7853 129.348C39.7853 129.756 39.65 129.891 39.244 129.891C39.1087 129.891 39.1087 129.891 38.9734 129.891C38.9734 129.891 38.8381 129.756 38.4321 129.62C38.2968 129.62 38.0261 129.484 37.4848 129.484H36.8082C36.6729 129.484 36.6729 129.484 36.6729 129.62V137.364C36.6729 137.908 36.4022 138.179 35.8609 138.179C35.3196 138.179 35.049 137.908 35.049 137.364V129.62C35.049 129.62 35.049 129.484 34.9137 129.484H34.237C33.8311 129.484 33.5604 129.484 33.2898 129.62C33.0191 129.756 32.7485 129.891 32.7485 129.891C32.6131 129.891 32.6131 129.891 32.4778 129.891C32.0718 129.891 31.9365 129.756 31.9365 129.348C31.9365 128.94 32.0718 128.804 32.4778 128.804H39.244Z" fill="#333333"/>
<path d="M48.5817 137.5C48.5817 138.043 48.311 138.315 47.7697 138.315C47.2284 138.315 46.9578 138.043 46.9578 137.5V130.842L42.3567 137.908C42.2214 138.179 41.9508 138.315 41.6801 138.315C41.1388 138.315 40.8682 138.043 40.8682 137.5V129.484C40.8682 128.94 41.1388 128.668 41.6801 128.668C42.2214 128.668 42.4921 128.94 42.4921 129.484V136.141L47.0931 129.076C47.2284 128.804 47.4991 128.804 47.7697 128.804C48.311 128.804 48.5817 129.076 48.5817 129.62V137.5Z" fill="#333333"/>
<path d="M58.3246 137.5C58.3246 138.043 58.0539 138.315 57.5126 138.315C57.1066 138.315 56.836 138.179 56.836 137.772C56.43 136.549 56.024 135.19 55.4827 133.696C54.6708 131.522 54.2648 130.435 54.1295 130.299C53.9942 130.435 53.5882 131.522 52.7762 133.831C51.829 136.685 51.2877 138.043 51.2877 138.043C51.1524 138.315 51.017 138.451 50.7464 138.451C50.3404 138.451 50.2051 138.315 50.2051 137.908V137.772C50.4757 136.685 51.017 135.19 51.829 133.288C52.7762 130.706 53.4529 129.348 53.7235 129.212C53.8588 129.076 54.1295 128.94 54.4001 128.94C54.6708 128.94 54.9414 129.076 55.0768 129.212C55.3474 129.348 55.8887 130.706 56.836 133.288C57.6479 135.326 58.0539 136.685 58.3246 137.5Z" fill="#333333"/>
<path d="M61.3016 132.201C63.3315 132.201 64.8201 132.473 65.7673 133.016C66.7146 133.56 67.2559 134.375 67.2559 135.462C67.2559 136.549 66.7146 137.228 65.7673 137.772C65.0907 138.044 64.2788 138.179 63.3315 138.179H60.3544C59.8131 138.179 59.6777 137.908 59.6777 137.364V129.348C59.6777 128.804 59.9484 128.533 60.4897 128.533C61.031 128.533 61.3016 128.804 61.3016 129.348V132.201ZM65.0907 136.821C65.632 136.549 65.9027 136.141 65.9027 135.598C65.9027 134.783 65.4967 134.239 64.6847 133.696C63.8728 133.288 62.7902 133.152 61.437 133.152V136.685C61.5723 137.092 61.9783 137.364 62.7902 137.364C63.7375 137.364 64.5494 137.228 65.0907 136.821Z" fill="#333333"/>
<path d="M76.4586 137.5C76.4586 138.043 76.188 138.315 75.6467 138.315C75.1054 138.315 74.8347 138.043 74.8347 137.5V133.288H70.369V137.5C70.369 138.043 70.0984 138.315 69.5571 138.315C69.0158 138.315 68.7451 138.043 68.7451 137.5V129.484C68.7451 128.94 69.0158 128.668 69.5571 128.668C70.0984 128.668 70.369 128.94 70.369 129.484V132.473H74.8347V129.484C74.8347 128.94 75.1054 128.668 75.6467 128.668C76.188 128.668 76.4586 128.94 76.4586 129.484V137.5Z" fill="#333333"/>
<path d="M86.3374 130.027C87.2846 130.978 87.6906 132.065 87.6906 133.56C87.6906 134.919 87.2846 136.141 86.3374 136.957C85.3901 137.908 84.3075 138.315 82.8189 138.315C81.3304 138.315 80.2478 137.908 79.3005 136.957C78.3532 136.006 77.9473 134.919 77.9473 133.424C77.9473 132.065 78.3532 130.842 79.3005 129.891C80.2478 128.94 81.3304 128.533 82.8189 128.533C84.1722 128.669 85.3901 129.076 86.3374 130.027ZM85.1195 136.277C85.6608 135.598 86.0667 134.647 86.0667 133.56C86.0667 132.473 85.7961 131.522 85.1195 130.843C84.5782 130.163 83.7662 129.756 82.8189 129.756C81.8717 129.756 81.1951 130.163 80.5184 130.843C79.9771 131.522 79.5712 132.473 79.5712 133.56C79.5712 134.647 79.8418 135.598 80.5184 136.277C81.0597 136.957 81.8717 137.364 82.6836 137.364C83.7662 137.364 84.4428 136.957 85.1195 136.277Z" fill="#333333"/>
<path d="M96.6213 135.87C96.7566 135.87 96.8919 135.734 97.0273 135.734C97.1626 135.734 97.2979 135.87 97.4332 136.006V136.141C97.4332 136.413 97.0273 136.821 96.2153 137.5C95.4034 138.044 94.3208 138.315 93.2382 138.315C91.8849 138.315 90.8023 137.908 89.9904 137.093C89.1784 136.277 88.7725 135.19 88.7725 133.832C88.7725 132.337 89.3138 130.978 90.261 130.027C91.2083 129.076 92.5616 128.533 94.0501 128.533C94.9974 128.533 95.8093 128.804 96.3506 129.212C96.8919 129.62 97.2979 130.299 97.2979 130.978C97.2979 131.522 97.1626 131.929 97.0273 132.201C96.7566 132.745 96.08 133.288 95.268 133.696C94.0501 134.239 92.4262 134.375 90.5317 134.511C90.667 135.326 90.9377 135.87 91.6143 136.413C92.1556 136.821 92.9675 137.093 93.7795 137.093C94.1855 137.093 94.8621 136.957 95.4034 136.685C95.8093 136.413 96.3506 136.141 96.6213 135.87ZM94.0501 133.016C95.1327 132.609 95.5387 131.929 95.5387 131.114C95.5387 130.707 95.4034 130.299 94.9974 130.027C94.5914 129.756 94.1854 129.62 93.6441 129.62C92.5615 129.62 91.7496 130.163 91.073 131.114C90.5317 131.929 90.261 132.745 90.261 133.696C92.0203 133.696 93.2382 133.424 94.0501 133.016Z" fill="#333333"/>
<path d="M110.29 137.5C109.478 138.179 108.666 138.451 107.583 138.451C106.365 138.451 105.283 138.043 104.471 137.092C103.659 136.141 103.253 135.19 103.253 133.832C103.253 132.337 103.659 131.114 104.606 130.163C105.553 129.212 106.636 128.668 107.989 128.668C108.801 128.668 109.478 128.804 110.154 129.212C110.696 129.62 111.102 130.027 111.102 130.435C111.102 130.707 110.966 130.842 110.831 130.978C110.696 131.114 110.425 131.25 110.29 131.25C110.019 131.25 109.748 131.114 109.478 130.842C109.207 130.435 109.072 130.299 108.937 130.163C108.666 129.891 108.26 129.755 107.854 129.755C107.177 129.755 106.501 130.027 106.095 130.435C105.689 130.842 105.418 131.386 105.283 131.929C105.147 132.473 105.012 133.016 105.012 133.696C105.012 134.647 105.283 135.462 105.824 136.141C106.365 136.821 107.042 137.092 107.854 137.092C108.26 137.092 108.666 136.957 109.072 136.821C109.478 136.685 109.748 136.549 110.019 136.277C110.154 136.141 110.29 136.005 110.425 135.87C110.696 135.598 110.831 135.598 110.966 135.598H111.237C111.372 135.598 111.372 135.734 111.372 136.005C111.372 136.413 110.966 136.957 110.29 137.5Z" fill="#333333"/>
<path d="M120.303 135.87C120.438 135.87 120.574 135.734 120.709 135.734C120.844 135.734 120.98 135.87 121.115 136.006V136.141C121.115 136.413 120.709 136.821 119.897 137.5C119.085 138.044 118.002 138.315 116.92 138.315C115.567 138.315 114.484 137.908 113.672 137.093C112.86 136.277 112.454 135.19 112.454 133.832C112.454 132.337 112.995 130.978 113.943 130.027C114.89 129.076 116.243 128.533 117.732 128.533C118.679 128.533 119.491 128.804 120.032 129.212C120.574 129.62 120.98 130.299 120.98 130.978C120.98 131.522 120.844 131.929 120.709 132.201C120.438 132.745 119.762 133.288 118.95 133.696C117.732 134.239 116.108 134.375 114.213 134.511C114.349 135.326 114.619 135.87 115.296 136.413C115.837 136.821 116.649 137.093 117.461 137.093C117.867 137.093 118.544 136.957 119.085 136.685C119.491 136.413 119.897 136.141 120.303 135.87ZM117.732 133.016C118.814 132.609 119.22 131.929 119.22 131.114C119.22 130.707 119.085 130.299 118.679 130.027C118.273 129.756 117.867 129.62 117.326 129.62C116.243 129.62 115.431 130.163 114.755 131.114C114.213 131.929 113.943 132.745 113.943 133.696C115.567 133.696 116.784 133.424 117.732 133.016Z" fill="#333333"/>
<path d="M130.046 129.891C130.994 130.707 131.4 131.794 131.4 133.288C131.4 134.783 130.994 136.006 130.182 136.957C129.37 137.908 128.287 138.451 127.069 138.451H126.663C126.393 138.451 126.122 138.451 125.851 138.315C125.445 138.179 124.904 137.908 124.227 137.636V141.576C124.227 142.12 123.957 142.391 123.415 142.391C122.874 142.391 122.604 142.12 122.604 141.576V129.62C122.604 129.076 122.874 128.804 123.415 128.804C123.957 128.804 124.092 129.076 124.227 129.62V130.027C124.769 129.62 125.175 129.348 125.581 129.212C126.122 128.94 126.528 128.94 127.069 128.94C128.287 128.804 129.234 129.076 130.046 129.891ZM128.828 136.141C129.37 135.326 129.64 134.375 129.64 133.152C129.64 132.201 129.37 131.386 128.828 130.707C128.287 130.027 127.611 129.756 126.799 129.756C126.122 129.756 125.581 129.891 125.039 130.163C124.498 130.435 124.227 130.707 124.227 131.114V136.141C124.904 136.821 125.716 137.228 126.799 137.228C127.611 137.364 128.287 136.957 128.828 136.141Z" fill="#333333"/>
<path d="M140.602 135.87C140.737 135.87 140.872 135.734 141.008 135.734C141.143 135.734 141.278 135.87 141.414 136.006V136.141C141.414 136.413 141.008 136.821 140.196 137.5C139.384 138.044 138.301 138.315 137.219 138.315C135.865 138.315 134.783 137.908 133.971 137.093C133.159 136.277 132.753 135.19 132.753 133.832C132.753 132.337 133.294 130.978 134.241 130.027C135.189 129.076 136.542 128.533 138.031 128.533C138.978 128.533 139.79 128.804 140.331 129.212C140.872 129.62 141.278 130.299 141.278 130.978C141.278 131.522 141.143 131.929 141.008 132.201C140.737 132.745 140.06 133.288 139.249 133.696C138.031 134.239 136.407 134.375 134.512 134.511C134.647 135.326 134.918 135.87 135.595 136.413C136.136 136.821 136.948 137.093 137.76 137.093C138.166 137.093 138.843 136.957 139.384 136.685C139.654 136.413 140.196 136.141 140.602 135.87ZM137.895 133.016C138.978 132.609 139.384 131.929 139.384 131.114C139.384 130.707 139.249 130.299 138.843 130.027C138.437 129.756 138.031 129.62 137.489 129.62C136.407 129.62 135.595 130.163 134.918 131.114C134.377 131.929 134.106 132.745 134.106 133.696C135.865 133.696 137.083 133.424 137.895 133.016Z" fill="#333333"/>
<path d="M151.292 130.027C152.24 130.978 152.646 132.065 152.646 133.424C152.646 134.783 152.24 135.87 151.292 136.821C150.345 137.772 149.262 138.179 147.909 138.179C146.556 138.179 145.338 137.772 144.526 136.821C143.714 136.005 143.173 134.783 143.173 133.56C143.173 133.288 143.173 132.88 143.173 132.473C143.173 131.522 143.173 130.435 143.308 129.212C143.579 127.31 144.255 125.951 145.609 125C145.879 124.864 146.285 124.592 146.556 124.592C146.962 124.457 147.368 124.321 147.909 124.185C148.451 124.049 148.857 123.913 149.127 123.913C149.262 123.913 149.533 123.777 149.804 123.641L150.074 123.505C150.21 123.37 150.345 123.37 150.48 123.37C151.022 123.37 151.157 123.641 151.157 124.049C151.157 124.185 151.022 124.457 150.886 124.728C150.616 125 150.48 125.272 150.074 125.408C149.804 125.544 149.398 125.679 148.992 125.815L146.556 126.359C146.15 126.495 145.744 126.63 145.203 126.902C144.391 127.446 143.985 128.533 143.985 130.299C144.12 130.163 144.255 130.027 144.255 129.891C145.203 128.94 146.285 128.533 147.639 128.533C149.127 128.669 150.345 129.212 151.292 130.027ZM150.074 136.277C150.616 135.598 151.022 134.647 151.022 133.56C151.022 132.473 150.751 131.522 150.21 130.842C149.668 130.163 148.857 129.755 147.909 129.755C146.962 129.755 146.285 130.163 145.609 130.842C145.067 131.522 144.797 132.473 144.797 133.56C144.797 134.647 145.067 135.598 145.609 136.277C146.15 136.957 146.962 137.364 147.774 137.364C148.721 137.228 149.533 136.957 150.074 136.277Z" fill="#333333"/>
<path d="M161.442 129.891C162.389 130.707 162.795 131.794 162.795 133.288C162.795 134.783 162.389 136.006 161.577 136.957C160.765 137.908 159.683 138.451 158.465 138.451H158.329C158.059 138.451 157.788 138.451 157.517 138.315C157.111 138.179 156.57 137.908 155.893 137.636V141.576C155.893 142.12 155.623 142.391 155.081 142.391C154.54 142.391 154.27 142.12 154.27 141.576V129.62C154.27 129.076 154.54 128.804 155.081 128.804C155.623 128.804 155.758 129.076 155.893 129.62V130.027C156.435 129.62 156.841 129.348 157.247 129.212C157.788 128.94 158.194 128.94 158.735 128.94C159.683 128.804 160.63 129.076 161.442 129.891ZM160.359 136.141C160.9 135.326 161.171 134.375 161.171 133.152C161.171 132.201 160.9 131.386 160.359 130.707C159.818 130.027 159.141 129.756 158.329 129.756C157.653 129.756 157.111 129.891 156.57 130.163C156.029 130.435 155.758 130.707 155.758 131.114V136.141C156.435 136.821 157.247 137.228 158.329 137.228C159.141 137.364 159.818 136.957 160.359 136.141Z" fill="#333333"/>
<path d="M172.403 130.027C173.35 130.978 173.756 132.065 173.756 133.56C173.756 134.919 173.35 136.141 172.403 136.957C171.456 137.908 170.373 138.315 168.884 138.315C167.396 138.315 166.313 137.908 165.366 136.957C164.419 136.006 164.013 134.919 164.013 133.424C164.013 132.065 164.419 130.842 165.366 129.891C166.313 128.94 167.396 128.533 168.884 128.533C170.373 128.669 171.591 129.076 172.403 130.027ZM171.32 136.277C171.861 135.598 172.267 134.647 172.267 133.56C172.267 132.473 171.997 131.522 171.32 130.843C170.779 130.163 169.967 129.756 169.02 129.756C168.072 129.756 167.396 130.163 166.719 130.843C166.178 131.522 165.772 132.473 165.772 133.56C165.772 134.647 166.043 135.598 166.719 136.277C167.26 136.957 168.072 137.364 168.884 137.364C169.967 137.364 170.644 136.957 171.32 136.277Z" fill="#333333"/>
<path d="M187.831 137.5C187.831 138.043 187.56 138.315 187.019 138.315C186.477 138.315 186.207 138.043 186.207 137.5V130.842L181.606 137.908C181.47 138.179 181.2 138.315 180.929 138.315C180.388 138.315 180.117 138.043 180.117 137.5V129.484C180.117 128.94 180.388 128.668 180.929 128.668C181.47 128.668 181.741 128.94 181.741 129.484V136.141L186.342 129.076C186.477 128.804 186.748 128.804 187.019 128.804C187.56 128.804 187.831 129.076 187.831 129.62V137.5Z" fill="#333333"/>
<path d="M195.273 133.016C196.491 133.288 197.168 134.103 197.168 135.462C197.168 136.006 197.032 136.413 196.626 136.957C196.356 137.364 195.95 137.636 195.273 137.908C194.732 138.179 194.055 138.315 193.243 138.315C192.431 138.315 191.755 138.179 191.213 137.908C190.131 137.364 189.454 136.821 189.454 136.141V135.87C189.454 135.462 189.725 135.326 190.131 135.326C190.401 135.326 190.672 135.462 190.672 135.734C190.943 136.141 191.213 136.549 191.755 136.685C192.296 136.957 192.837 137.093 193.514 137.093C194.19 137.093 194.596 136.957 195.002 136.549C195.544 136.006 195.95 135.462 195.95 135.054C195.95 134.647 195.679 134.103 195.138 133.696C194.732 133.424 194.055 133.152 193.379 133.152H192.161C191.89 133.152 191.755 133.152 191.619 133.016C191.484 132.881 191.484 132.881 191.484 132.745C191.484 132.609 191.484 132.473 191.619 132.473C191.755 132.337 191.89 132.337 192.161 132.337H193.514C194.055 132.337 194.461 132.201 194.867 131.929C195.273 131.658 195.408 131.25 195.408 130.843C195.408 129.891 194.867 129.348 193.649 129.212H193.514C192.702 129.212 192.025 129.484 191.349 130.027C191.213 130.163 191.078 130.163 190.943 130.163C190.537 130.163 190.401 130.027 190.401 129.62C190.401 129.484 190.537 129.212 190.672 129.212C191.484 128.669 192.431 128.261 193.514 128.261C194.055 128.261 194.732 128.397 195.273 128.533C195.814 128.804 196.22 129.076 196.626 129.348C196.897 129.756 197.168 130.163 197.168 130.707C197.168 131.25 197.032 131.658 196.762 131.929C195.95 132.745 195.679 132.881 195.273 133.016Z" fill="#333333"/>
<path d="M204.882 138.043C204.746 138.179 204.476 138.315 204.34 138.315C203.799 138.315 203.528 138.043 203.528 137.5V125.815C203.528 125.272 203.799 125 204.34 125C204.882 125 205.152 125.272 205.152 125.815V135.87L212.324 125.408C212.324 125.408 212.324 125.272 212.46 125.272C212.595 125.136 212.866 125 213.001 125C213.542 125 213.813 125.272 213.813 125.815V137.636C213.813 138.043 213.542 138.315 213.001 138.315C212.46 138.315 212.189 138.043 212.189 137.5V127.446L204.882 138.043Z" fill="#333333"/>
<path d="M223.556 137.5C223.556 138.043 223.286 138.315 222.744 138.315C222.203 138.315 221.932 138.043 221.932 137.5V133.288H217.467V137.5C217.467 138.043 217.196 138.315 216.655 138.315C216.113 138.315 215.843 138.043 215.843 137.5V129.484C215.843 128.94 216.113 128.668 216.655 128.668C217.196 128.668 217.467 128.94 217.467 129.484V132.473H221.932V129.484C221.932 128.94 222.203 128.668 222.744 128.668C223.286 128.668 223.556 128.94 223.556 129.484V137.5Z" fill="#333333"/>
<path d="M233.57 137.772C233.705 138.044 233.841 138.451 233.841 138.859C233.841 138.995 233.841 139.131 233.705 139.131C233.57 139.266 233.57 139.266 233.435 139.266C233.299 139.266 233.029 139.131 232.893 138.995C232.623 138.723 232.487 138.587 232.217 138.451C232.081 138.315 231.675 138.315 231.269 138.315H226.533C226.127 138.315 225.856 138.451 225.586 138.451C225.45 138.587 225.18 138.723 224.909 138.995C224.774 139.131 224.503 139.266 224.368 139.266C224.233 139.266 224.097 139.266 224.097 139.131C223.962 138.995 223.962 138.995 223.962 138.859C223.962 138.315 224.097 137.908 224.097 137.772C224.097 137.636 224.368 137.5 224.774 137.364C225.045 136.549 225.45 135.19 226.127 133.288C227.21 130.571 227.886 129.076 228.157 128.804C228.292 128.669 228.563 128.533 228.834 128.533C229.104 128.533 229.375 128.669 229.51 128.804C229.781 128.94 230.457 130.435 231.405 133.288C232.217 135.598 232.758 136.957 232.758 137.364C233.299 137.5 233.57 137.636 233.57 137.772ZM231.405 137.364C230.999 136.006 230.593 134.783 230.051 133.288C229.375 131.25 228.834 130.163 228.698 130.027C228.563 130.163 228.157 131.25 227.345 133.56C226.533 136.006 226.127 137.228 226.127 137.228H231.405V137.364Z" fill="#333333"/>
<path d="M242.366 137.5C242.366 138.043 242.095 138.315 241.554 138.315C241.013 138.315 240.742 138.043 240.742 137.5V130.842L236.141 137.908C236.006 138.179 235.735 138.315 235.464 138.315C234.923 138.315 234.652 138.043 234.652 137.5V129.484C234.652 128.94 234.923 128.668 235.464 128.668C236.006 128.668 236.276 128.94 236.276 129.484V136.141L240.877 129.076C241.013 128.804 241.283 128.804 241.554 128.804C242.095 128.804 242.366 129.076 242.366 129.62V137.5Z" fill="#333333"/>
<path d="M252.109 137.5C252.109 138.043 251.838 138.315 251.297 138.315C250.756 138.315 250.485 138.043 250.485 137.5V130.842L245.884 137.908C245.749 138.179 245.478 138.315 245.207 138.315C244.666 138.315 244.396 138.043 244.396 137.5V129.484C244.396 128.94 244.666 128.668 245.207 128.668C245.749 128.668 246.019 128.94 246.019 129.484V136.141L250.62 129.076C250.756 128.804 251.026 128.804 251.297 128.804C251.838 128.804 252.109 129.076 252.109 129.62V137.5Z" fill="#333333"/>
<path d="M266.454 137.5C266.454 138.043 266.183 138.315 265.642 138.315C265.101 138.315 264.83 138.043 264.83 137.5V130.842L260.229 137.908C260.093 138.179 259.823 138.315 259.552 138.315C259.011 138.315 258.74 138.043 258.74 137.5V129.484C258.74 128.94 259.011 128.668 259.552 128.668C260.093 128.668 260.364 128.94 260.364 129.484V136.141L264.965 129.076C265.101 128.804 265.371 128.804 265.642 128.804C266.183 128.804 266.454 129.076 266.454 129.62V137.5Z" fill="#333333"/>
<path d="M281.881 125C282.422 125 282.693 125.272 282.693 125.951C282.693 126.63 282.422 126.902 281.881 126.902C281.746 126.902 281.61 126.902 281.475 126.766C280.934 126.495 280.528 126.359 280.257 126.223C279.987 126.087 279.445 126.087 278.904 126.087C278.633 126.087 278.498 126.223 278.363 126.223C278.227 126.359 278.227 126.63 278.227 127.31V137.772C278.227 138.179 277.957 138.451 277.415 138.451C276.874 138.451 276.603 138.179 276.603 137.636V126.902C276.603 126.766 276.603 126.63 276.603 126.495C276.603 126.359 276.333 126.223 275.927 126.087C275.385 126.087 274.844 126.223 274.574 126.223C274.303 126.359 273.762 126.495 273.356 126.766C273.22 126.766 273.085 126.902 272.95 126.902C272.408 126.902 272.138 126.63 272.138 125.951C272.138 125.272 272.408 125 272.95 125H281.881Z" fill="#333333"/>
<path d="M288.241 129.891C288.918 130.571 289.324 131.794 289.324 133.424V137.228C289.324 137.772 289.053 137.908 288.647 137.908H288.512C288.106 137.908 287.835 137.636 287.835 137.228V136.549C287.294 137.092 286.888 137.5 286.482 137.772C285.806 138.044 285.129 138.315 284.452 138.315C283.505 138.315 282.828 138.044 282.287 137.5C281.746 136.957 281.34 136.277 281.34 135.598C281.34 134.375 281.746 133.56 282.693 132.881C283.776 132.201 285.4 131.929 287.7 131.929C287.565 131.25 287.294 130.707 286.888 130.299C286.482 129.891 285.806 129.756 285.129 129.756C284.858 129.756 284.588 129.756 284.452 129.891C284.317 129.891 283.911 130.163 283.505 130.299C283.234 130.435 282.964 130.571 282.828 130.571C282.693 130.571 282.558 130.571 282.422 130.571C282.287 130.571 282.152 130.571 282.016 130.571C281.881 130.435 281.746 130.299 281.746 130.163C281.746 129.756 282.016 129.348 282.558 129.212C283.099 129.076 283.911 128.804 284.858 128.804C286.347 128.804 287.43 129.076 288.241 129.891ZM286.618 136.549C287.294 136.006 287.7 135.19 287.7 133.967V132.881C287.294 132.881 287.024 132.881 286.618 132.881C285.4 132.881 284.588 133.152 283.911 133.56C283.234 133.967 282.828 134.647 282.828 135.462C282.828 136.006 282.964 136.413 283.37 136.685C283.776 136.957 284.182 137.228 284.723 137.228C285.535 137.228 286.076 136.957 286.618 136.549Z" fill="#333333"/>
<path d="M298.931 137.5C298.931 138.043 298.661 138.315 298.119 138.315C297.578 138.315 297.307 138.043 297.307 137.5V130.842L292.706 137.908C292.571 138.179 292.3 138.315 292.03 138.315C291.488 138.315 291.218 138.043 291.218 137.5V129.484C291.218 128.94 291.488 128.668 292.03 128.668C292.571 128.668 292.842 128.94 292.842 129.484V136.141L297.443 129.076C297.578 128.804 297.849 128.804 298.119 128.804C298.661 128.804 298.931 129.076 298.931 129.62V137.5Z" fill="#333333"/>
<path d="M308.675 137.5C308.675 138.043 308.404 138.315 307.863 138.315C307.457 138.315 307.187 138.179 307.187 137.772C306.781 136.549 306.375 135.19 305.833 133.696C305.021 131.522 304.615 130.435 304.48 130.299C304.345 130.435 303.939 131.522 303.127 133.831C302.18 136.685 301.638 138.043 301.638 138.043C301.503 138.315 301.368 138.451 301.097 138.451C300.691 138.451 300.556 138.315 300.556 137.908V137.772C300.826 136.685 301.368 135.19 302.18 133.288C303.127 130.706 303.803 129.348 304.074 129.212C304.209 129.076 304.48 128.94 304.751 128.94C305.021 128.94 305.292 129.076 305.427 129.212C305.698 129.348 306.239 130.706 307.187 133.288C307.998 135.326 308.404 136.685 308.675 137.5Z" fill="#333333"/>
<path d="M316.659 129.891C317.336 130.571 317.742 131.794 317.742 133.424V137.228C317.742 137.772 317.471 137.908 317.065 137.908H316.93C316.524 137.908 316.253 137.636 316.253 137.228V136.549C315.712 137.092 315.306 137.5 314.9 137.772C314.224 138.044 313.547 138.315 312.87 138.315C311.923 138.315 311.246 138.044 310.705 137.5C310.164 136.957 309.758 136.277 309.758 135.598C309.758 134.375 310.164 133.56 311.111 132.881C312.194 132.201 313.818 131.929 316.118 131.929C315.983 131.25 315.712 130.707 315.306 130.299C314.9 129.891 314.224 129.756 313.547 129.756C313.276 129.756 313.006 129.756 312.87 129.891C312.735 129.891 312.329 130.163 311.923 130.299C311.652 130.435 311.382 130.571 311.246 130.571C311.111 130.571 310.976 130.571 310.84 130.571C310.705 130.571 310.57 130.571 310.434 130.571C310.299 130.435 310.164 130.299 310.164 130.163C310.164 129.756 310.434 129.348 310.976 129.212C311.517 129.076 312.329 128.804 313.276 128.804C314.765 128.804 315.983 129.076 316.659 129.891ZM315.171 136.549C315.847 136.006 316.253 135.19 316.253 133.967V132.881C315.847 132.881 315.577 132.881 315.171 132.881C313.953 132.881 313.141 133.152 312.464 133.56C311.788 133.967 311.382 134.647 311.382 135.462C311.382 136.006 311.517 136.413 311.923 136.685C312.329 136.957 312.735 137.228 313.276 137.228C313.953 137.228 314.63 136.957 315.171 136.549Z" fill="#333333"/>
<path d="M327.214 137.5C327.214 138.043 326.944 138.315 326.403 138.315C325.861 138.315 325.591 138.043 325.591 137.5V133.288H321.125V137.5C321.125 138.043 320.854 138.315 320.313 138.315C319.772 138.315 319.501 138.043 319.501 137.5V129.484C319.501 128.94 319.772 128.668 320.313 128.668C320.854 128.668 321.125 128.94 321.125 129.484V132.473H325.591V129.484C325.591 128.94 325.861 128.668 326.403 128.668C326.944 128.668 327.214 128.94 327.214 129.484V137.5Z" fill="#333333"/>
<path d="M337.364 137.772C337.499 138.044 337.635 138.451 337.635 138.859C337.635 138.995 337.635 139.131 337.499 139.131C337.364 139.266 337.364 139.266 337.229 139.266C337.093 139.266 336.823 139.131 336.687 138.995C336.417 138.723 336.281 138.587 336.011 138.451C335.875 138.315 335.469 138.315 335.063 138.315H330.327C329.921 138.315 329.65 138.451 329.38 138.451C329.244 138.587 328.974 138.723 328.703 138.995C328.568 139.131 328.297 139.266 328.162 139.266C328.027 139.266 327.891 139.266 327.891 139.131C327.756 138.995 327.756 138.995 327.756 138.859C327.756 138.315 327.891 137.908 327.891 137.772C327.891 137.636 328.162 137.5 328.568 137.364C328.838 136.549 329.244 135.19 329.921 133.288C331.004 130.571 331.68 129.076 331.951 128.804C332.086 128.669 332.357 128.533 332.628 128.533C332.898 128.533 333.169 128.669 333.304 128.804C333.575 128.94 334.251 130.435 335.199 133.288C336.011 135.598 336.552 136.957 336.552 137.364C337.093 137.5 337.229 137.636 337.364 137.772ZM335.199 137.364C334.793 136.006 334.387 134.783 333.845 133.288C333.169 131.25 332.628 130.163 332.492 130.027C332.357 130.163 331.951 131.25 331.139 133.56C330.327 136.006 329.921 137.228 329.921 137.228H335.199V137.364Z" fill="#333333"/>
<path d="M344.942 130.108C345.619 130.787 346.025 132.01 346.025 133.641V137.445C346.025 137.988 345.754 138.124 345.348 138.124H345.213C344.807 138.124 344.536 137.853 344.536 137.445V136.766C343.995 137.309 343.589 137.717 343.183 137.988C342.507 138.26 341.83 138.532 341.153 138.532C340.206 138.532 339.53 138.26 338.988 137.717C338.447 137.173 338.041 136.494 338.041 135.814C338.041 134.592 338.447 133.776 339.394 133.097C340.477 132.418 342.101 132.146 344.401 132.146C344.266 131.467 343.995 130.923 343.589 130.516C343.183 130.108 342.507 129.972 341.83 129.972C341.559 129.972 341.289 129.972 341.153 130.108C341.018 130.108 340.612 130.38 340.206 130.516C339.936 130.651 339.665 130.787 339.53 130.787C339.394 130.787 339.259 130.787 339.124 130.787C338.988 130.787 338.853 130.787 338.718 130.787C338.582 130.651 338.447 130.516 338.447 130.38C338.447 129.972 338.718 129.564 339.259 129.429C339.8 129.293 340.612 129.021 341.559 129.021C343.048 129.021 344.266 129.293 344.942 130.108ZM343.319 136.766C343.995 136.222 344.401 135.407 344.401 134.184V133.097C343.995 133.097 343.725 133.097 343.319 133.097C342.101 133.097 341.289 133.369 340.612 133.776C339.936 134.184 339.53 134.863 339.53 135.679C339.53 136.222 339.665 136.63 340.071 136.901C340.477 137.173 340.883 137.445 341.424 137.445C342.236 137.445 342.913 137.173 343.319 136.766Z" fill="#333333"/>
<path d="M101.494 100.467C101.629 100.603 101.764 100.739 101.764 101.011C101.764 101.554 101.494 102.098 100.817 102.777C100.14 103.457 99.3285 104 98.2459 104.544C97.028 105.087 95.8101 105.359 94.4568 105.359C91.615 105.359 89.4498 104.408 87.8259 102.641C86.3373 100.875 85.5254 98.7012 85.5254 95.8479C85.5254 92.9947 86.4727 90.549 88.2319 88.7827C89.9911 86.8805 92.2916 85.9294 94.9981 85.9294C96.0807 85.9294 97.2986 86.0653 98.5166 86.4729C99.5992 86.7447 100.276 87.0164 100.546 87.424C100.817 87.6957 101.088 87.9675 101.088 88.3751C101.088 89.1903 100.682 89.5979 99.8698 89.5979C99.5992 89.5979 99.1932 89.462 99.0578 89.1903C98.5165 88.6468 97.9752 88.2392 97.5693 87.9675C96.622 87.424 95.6747 87.2881 94.7275 87.2881C92.8329 87.2881 91.3443 88.1034 90.1264 89.5979C88.9085 91.2284 88.3672 93.1305 88.3672 95.5762C88.3672 98.0218 89.0438 99.924 90.2617 101.419C91.4797 102.913 93.1036 103.728 95.1334 103.728C96.0807 103.728 97.028 103.592 97.8399 103.185C98.7872 102.777 99.4638 102.37 100.005 101.826C100.276 101.419 100.546 101.147 100.682 100.875C100.952 100.467 101.223 100.332 101.494 100.467C101.223 100.196 101.358 100.332 101.494 100.467Z" fill="#C0384E"/>
<path d="M115.161 101.418C115.297 101.418 115.297 101.418 115.432 101.554C115.432 101.69 115.432 101.69 115.432 101.962V102.098C115.432 102.641 114.891 103.321 113.808 104C112.59 104.815 111.237 105.223 109.613 105.223C107.719 105.223 106.095 104.679 105.012 103.457C103.794 102.234 103.253 100.739 103.253 98.837C103.253 96.663 103.93 94.8967 105.418 93.4022C106.907 92.0435 108.666 91.2283 110.831 91.2283C112.184 91.2283 113.267 91.5 114.214 92.1794C115.026 92.8587 115.432 93.6739 115.432 94.7609C115.432 95.5761 115.297 96.1196 115.026 96.5272C114.62 97.2065 113.808 97.75 112.455 98.2935C110.831 98.9728 108.666 99.3804 105.824 99.7881C105.824 100.875 106.23 101.69 107.177 102.37C107.989 102.913 109.072 103.321 110.154 103.321C110.831 103.321 111.643 103.185 112.455 102.777C113.267 102.37 114.079 101.826 114.891 101.418H115.161ZM110.696 97.6141C112.184 96.9348 112.861 95.9837 112.861 94.7609C112.861 94.0815 112.59 93.5381 112.184 93.1304C111.643 92.7228 111.102 92.587 110.29 92.587C108.801 92.587 107.448 93.2663 106.636 94.7609C105.959 95.8478 105.553 97.2065 105.553 98.5652C107.719 98.5652 109.343 98.1576 110.696 97.6141Z" fill="#C0384E"/>
<path d="M128.017 93.1304C129.235 94.3533 129.912 95.9837 129.912 97.8859C129.912 99.9239 129.37 101.69 128.152 103.049C126.934 104.408 125.446 105.087 123.687 105.087H123.416C123.01 105.087 122.604 105.087 122.198 104.951C121.522 104.815 120.845 104.408 119.898 104V109.707C119.898 110.386 119.492 110.793 118.815 110.793C118.138 110.793 117.732 110.386 117.732 109.707V92.587C117.732 91.9076 118.138 91.5 118.815 91.5C119.492 91.5 119.898 91.9076 119.898 92.587V93.2663C120.574 92.7228 121.251 92.3152 121.927 92.0435C122.604 91.7717 123.416 91.6359 124.093 91.6359C125.581 91.5 126.934 92.0435 128.017 93.1304ZM126.528 102.098C127.34 101.011 127.746 99.6522 127.746 97.8859C127.746 96.5272 127.34 95.3043 126.528 94.4891C125.717 93.538 124.769 93.1304 123.551 93.1304C122.604 93.1304 121.792 93.2663 121.116 93.6739C120.439 94.0815 120.033 94.4891 119.898 95.0326V102.234C120.845 103.185 122.063 103.728 123.551 103.728C124.769 103.728 125.717 103.185 126.528 102.098Z" fill="#C0384E"/>
<path d="M143.85 101.418C143.985 101.418 143.985 101.418 144.121 101.554C144.121 101.69 144.121 101.69 144.121 101.962V102.098C144.121 102.641 143.579 103.321 142.497 104C141.279 104.815 139.926 105.223 138.302 105.223C136.407 105.223 134.783 104.679 133.701 103.457C132.483 102.234 131.941 100.739 131.941 98.837C131.941 96.663 132.618 94.8967 134.107 93.4022C135.595 92.0435 137.354 91.2283 139.52 91.2283C140.873 91.2283 141.955 91.5 142.903 92.1794C143.715 92.8587 144.121 93.6739 144.121 94.7609C144.121 95.5761 143.985 96.1196 143.715 96.5272C143.309 97.2065 142.497 97.75 141.143 98.2935C139.52 98.9728 137.354 99.3804 134.513 99.7881C134.513 100.875 134.919 101.69 135.866 102.37C136.678 102.913 137.76 103.321 138.843 103.321C139.52 103.321 140.332 103.185 141.143 102.777C141.955 102.37 142.767 101.826 143.579 101.418H143.85ZM139.384 97.6141C140.873 96.9348 141.549 95.9837 141.549 94.7609C141.549 94.0815 141.279 93.5381 140.873 93.1304C140.331 92.7228 139.79 92.587 138.978 92.587C137.49 92.587 136.136 93.2663 135.325 94.7609C134.648 95.8478 134.242 97.2065 134.242 98.5652C136.407 98.5652 138.166 98.1576 139.384 97.6141Z" fill="#C0384E"/>
<path d="M157.248 104C157.248 104.679 156.842 105.087 156.165 105.087C155.489 105.087 155.083 104.679 155.083 104V98.0217H148.587V104C148.587 104.679 148.181 105.087 147.504 105.087C146.828 105.087 146.422 104.679 146.422 104V92.587C146.422 91.9076 146.828 91.5 147.504 91.5C148.181 91.5 148.587 91.9076 148.587 92.587V96.9348H155.083V92.587C155.083 91.9076 155.489 91.5 156.165 91.5C156.842 91.5 157.248 91.9076 157.248 92.587V104Z" fill="#C0384E"/>
<path d="M169.426 93.1304C170.374 94.2174 170.915 95.8478 170.915 98.2935V103.864C170.915 104.543 170.509 104.951 169.832 104.951H169.562C169.02 104.815 168.614 104.543 168.614 103.864V102.913C167.938 103.728 167.261 104.272 166.584 104.543C165.772 104.951 164.69 105.223 163.607 105.223C162.389 105.223 161.307 104.815 160.36 104.136C159.548 103.457 159.142 102.505 159.142 101.418C159.142 99.6522 159.818 98.4293 161.171 97.6141C162.66 96.663 165.096 96.1196 168.344 96.1196C168.208 95.1685 167.802 94.4891 167.126 93.8098C166.449 93.2663 165.637 92.9946 164.555 92.9946C164.149 92.9946 163.878 92.9946 163.607 93.1304C163.337 93.2663 162.931 93.4022 162.389 93.6739C161.848 93.9457 161.577 94.0815 161.442 94.2174C161.307 94.2174 161.171 94.3533 160.901 94.3533C160.63 94.3533 160.495 94.3533 160.36 94.2174C160.224 94.0815 160.089 93.9457 160.089 93.538C160.089 92.9946 160.495 92.4511 161.307 92.0435C162.119 91.6359 163.201 91.5 164.555 91.5C166.855 91.5 168.479 92.0435 169.426 93.1304ZM167.261 102.641C168.344 101.826 168.75 100.603 168.75 98.9728V97.0707C166.314 97.0707 164.555 97.4783 163.337 98.1576C162.389 98.8369 161.848 99.788 161.848 100.875C161.848 101.554 162.119 102.234 162.66 102.641C163.201 103.049 163.878 103.321 164.69 103.321C165.637 103.457 166.584 103.185 167.261 102.641Z" fill="#C0384E"/>
<path d="M180.794 97.7501H174.975C174.298 97.7501 174.027 97.4783 174.027 96.799C174.027 96.1196 174.298 95.8479 174.975 95.8479H180.794C181.47 95.8479 181.741 96.1196 181.741 96.799C181.741 97.3425 181.47 97.7501 180.794 97.7501Z" fill="#C0384E"/>
<path d="M199.468 100.467C199.604 100.603 199.739 100.739 199.739 101.011C199.739 101.554 199.468 102.098 198.792 102.777C198.115 103.457 197.303 104 196.22 104.544C195.003 105.087 193.785 105.359 192.431 105.359C189.59 105.359 187.424 104.408 185.801 102.641C184.312 100.875 183.5 98.7012 183.5 95.8479C183.5 92.9947 184.447 90.549 186.206 88.7827C187.966 86.8805 190.266 85.9294 192.973 85.9294C194.055 85.9294 195.273 86.0653 196.491 86.4729C197.574 86.7447 198.25 87.0164 198.521 87.424C198.792 87.6957 199.062 87.9675 199.062 88.3751C199.062 89.1903 198.656 89.5979 197.844 89.5979C197.574 89.5979 197.168 89.462 197.032 89.1903C196.491 88.6468 195.95 88.2392 195.544 87.9675C194.597 87.424 193.649 87.2881 192.702 87.2881C190.807 87.2881 189.319 88.1034 188.101 89.5979C186.883 91.2284 186.342 93.1305 186.342 95.5762C186.342 98.0218 187.018 99.924 188.236 101.419C189.454 102.913 191.078 103.728 193.108 103.728C194.055 103.728 195.003 103.592 195.815 103.185C196.762 102.777 197.438 102.37 197.98 101.826C198.25 101.419 198.521 101.147 198.656 100.875C198.927 100.467 199.198 100.332 199.468 100.467C199.198 100.196 199.333 100.332 199.468 100.467Z" fill="#C0384E"/>
<path d="M212.866 104C212.866 104.679 212.46 105.087 211.783 105.087C211.107 105.087 210.701 104.679 210.701 104V94.3534L204.07 104.408C203.935 104.815 203.529 104.951 203.123 104.951C202.446 104.951 202.04 104.544 202.04 103.864V92.4512C202.04 91.7719 202.446 91.3643 203.123 91.3643C203.799 91.3643 204.205 91.7719 204.205 92.4512V101.962L210.836 91.9077V91.7719C211.107 91.5001 211.377 91.3643 211.648 91.3643C212.325 91.3643 212.731 91.7719 212.731 92.4512L212.866 104Z" fill="#C0384E"/>
<path d="M226.534 104C226.534 104.679 226.128 105.087 225.451 105.087C224.91 105.087 224.504 104.815 224.368 104.272C223.827 102.505 223.15 100.467 222.338 98.4293C221.256 95.3043 220.579 93.6739 220.309 93.538C220.173 93.6739 219.497 95.3043 218.414 98.5652C217.061 102.641 216.249 104.543 216.249 104.543C216.114 104.951 215.843 105.087 215.437 105.087C214.896 105.087 214.625 104.815 214.625 104.272V104.136C215.031 102.641 215.843 100.467 216.926 97.6141C218.279 93.9457 219.226 92.0435 219.632 91.7717C219.903 91.6359 220.173 91.5 220.579 91.5H220.715C221.121 91.5 221.391 91.6359 221.797 91.9076C222.068 92.1793 223.015 94.0815 224.368 97.75C225.451 100.739 226.128 102.641 226.534 103.728V104Z" fill="#C0384E"/>
<path d="M238.171 99.1087C238.712 99.788 238.983 100.603 238.983 101.554C238.983 102.777 238.306 103.728 236.953 104.408C236.006 104.815 234.653 105.087 232.893 105.087H229.51C228.834 105.087 228.428 104.679 228.428 104V92.587C228.428 91.9076 228.834 91.5 229.51 91.5C230.187 91.5 230.593 91.9076 230.593 92.587V96.3913C231.405 96.3913 232.352 96.5272 233.299 96.663C234.382 96.7989 235.194 97.0706 235.871 97.4783C236.818 97.8859 237.63 98.4293 238.171 99.1087ZM235.871 103.185C236.412 102.777 236.683 102.098 236.683 101.418C236.683 100.196 236.141 99.3804 235.194 98.8369C233.976 98.1576 232.623 97.75 230.999 97.6141H230.728V102.641C230.728 103.185 230.864 103.457 231.27 103.728C231.676 104 232.217 104 233.164 104C234.382 103.864 235.194 103.592 235.871 103.185Z" fill="#C0384E"/>
<path d="M252.11 99.6522C252.516 100.06 252.652 100.603 252.652 101.147C252.652 102.505 252.11 103.457 251.028 104.136C249.945 104.815 248.457 105.087 246.697 105.087H242.096C241.42 105.087 241.014 104.679 241.014 104V92.587C241.014 91.9076 241.42 91.5 242.096 91.5H246.156C247.78 91.5 248.998 91.6359 249.81 92.0435C250.892 92.5869 251.434 93.4022 251.434 94.625C251.434 95.1685 251.163 95.712 250.486 96.2554C249.81 96.7989 249.133 97.2065 248.457 97.3424L247.915 97.4783L248.457 97.6141C249.133 97.75 249.81 98.0217 250.486 98.4293C251.163 98.837 251.704 99.1087 252.11 99.6522ZM245.615 92.7228C244.261 92.7228 243.45 92.9946 243.314 93.6739V97.75C247.239 97.0707 249.268 95.9837 249.268 94.4891C249.268 93.9456 248.862 93.538 248.186 93.2663C247.374 92.8587 246.562 92.7228 245.615 92.7228ZM249.133 103.185C250.08 102.777 250.622 102.098 250.622 101.283C250.622 100.739 250.351 100.196 249.81 99.788C248.727 98.9728 247.509 98.4293 246.021 98.4293L243.314 99.1087V102.777C243.45 103.457 244.261 103.728 245.75 103.728C246.968 103.728 248.186 103.592 249.133 103.185Z" fill="#C0384E"/>
<path d="M266.048 101.418C266.184 101.418 266.184 101.418 266.319 101.554C266.319 101.69 266.319 101.69 266.319 101.962V102.098C266.319 102.641 265.778 103.321 264.695 104C263.477 104.815 262.124 105.223 260.5 105.223C258.605 105.223 256.981 104.679 255.899 103.457C254.681 102.234 254.14 100.739 254.14 98.837C254.14 96.663 254.816 94.8967 256.305 93.4022C257.793 92.0435 259.553 91.2283 261.718 91.2283C263.071 91.2283 264.154 91.5 265.101 92.1794C265.913 92.8587 266.319 93.6739 266.319 94.7609C266.319 95.5761 266.184 96.1196 265.913 96.5272C265.507 97.2065 264.695 97.75 263.342 98.2935C261.718 98.9728 259.553 99.3804 256.711 99.7881C256.711 100.875 257.117 101.69 258.064 102.37C258.876 102.913 259.959 103.321 261.041 103.321C261.718 103.321 262.53 103.185 263.342 102.777C264.154 102.37 264.966 101.826 265.778 101.418H266.048ZM261.583 97.6141C263.071 96.9348 263.748 95.9837 263.748 94.7609C263.748 94.0815 263.477 93.5381 263.071 93.1304C262.53 92.7228 261.988 92.587 261.177 92.587C259.688 92.587 258.335 93.2663 257.523 94.7609C256.846 95.8478 256.44 97.2065 256.44 98.5652C258.605 98.5652 260.229 98.1576 261.583 97.6141Z" fill="#C0384E"/>
<path d="M279.04 93.1304C280.257 94.3533 280.934 95.9837 280.934 97.8859C280.934 99.9239 280.393 101.69 279.175 103.049C277.957 104.408 276.468 105.087 274.709 105.087H274.439C274.033 105.087 273.627 105.087 273.221 104.951C272.544 104.815 271.867 104.408 270.92 104V109.707C270.92 110.386 270.514 110.793 269.837 110.793C269.161 110.793 268.755 110.386 268.755 109.707V92.587C268.755 91.9076 269.161 91.5 269.837 91.5C270.514 91.5 270.92 91.9076 270.92 92.587V93.2663C271.597 92.7228 272.273 92.3152 272.95 92.0435C273.627 91.7717 274.439 91.6359 275.115 91.6359C276.468 91.5 277.822 92.0435 279.04 93.1304ZM277.416 102.098C278.228 101.011 278.634 99.6522 278.634 97.8859C278.634 96.5272 278.228 95.3043 277.416 94.4891C276.604 93.538 275.656 93.1304 274.439 93.1304C273.491 93.1304 272.679 93.2663 272.003 93.6739C271.326 94.0815 270.92 94.4891 270.785 95.0326V102.234C271.732 103.185 272.95 103.728 274.439 103.728C275.656 103.728 276.604 103.185 277.416 102.098Z" fill="#C0384E"/>
<path d="M183.771 54.0761L216.113 12.2283L202.581 0.271729H165.096L151.563 12.2283L183.771 54.0761Z" fill="url(#paint0_linear)"/>
<path opacity="0.4" d="M216.113 12.2283L183.771 54.0761L199.468 12.2283H216.113Z" fill="white"/>
<path opacity="0.4" d="M151.563 12.2283L183.771 54.0761L168.208 12.2283H151.563Z" fill="white"/>
<path opacity="0.16" d="M165.096 0.271729H202.581L183.77 12.2282L165.096 0.271729Z" fill="white"/>
<path opacity="0.4" d="M168.208 12.2282H199.468L183.77 0.271729L168.208 12.2282Z" fill="white"/>
<path opacity="0.23" d="M151.563 12.2283L163.337 27.5815L183.771 12.2283H151.563Z" fill="white"/>
<path opacity="0.23" d="M216.113 12.2283L204.34 27.5815L183.771 12.2283H216.113Z" fill="white"/>
<path opacity="0.06" d="M163.337 27.5815H204.34L183.771 12.2283L163.337 27.5815Z" fill="white"/>
<path opacity="0.09" d="M168.208 12.2283H199.468L193.784 27.5815H173.892L168.208 12.2283Z" fill="white"/>
<path d="M170.238 44.4295L179.982 40.761L183.365 28.5327L189.59 41.9838L194.867 46.4675L183.771 55.9784L170.238 44.4295Z" fill="white"/>
<path opacity="0.1" d="M151.563 12.2282H216.113L202.581 0.271729H165.096L151.563 12.2282Z" fill="white"/>
<path d="M165.772 43.0707C157.382 47.0109 138.166 58.9674 125.852 79.212H142.226C152.646 67.9348 167.532 60.8696 183.77 60.8696C200.009 60.8696 214.895 67.9348 225.315 79.212H241.825C229.51 59.1033 210.294 47.0109 201.904 43.0707C198.927 46.7392 195.95 49.1848 193.378 49.1848C186.748 49.1848 183.77 37.6359 183.77 33.8315C183.77 37.6359 180.793 49.1848 174.162 49.1848C171.727 49.1848 168.749 46.7392 165.772 43.0707Z" fill="white"/>
<path opacity="0.46" d="M165.772 43.0707C157.382 47.0109 138.166 58.9674 125.852 79.212H142.226C152.646 67.9348 167.532 60.8696 183.77 60.8696C200.009 60.8696 214.895 67.9348 225.315 79.212H241.825C229.51 59.1033 210.294 47.0109 201.904 43.0707C198.927 46.7392 195.95 49.1848 193.378 49.1848C186.748 49.1848 183.77 37.6359 183.77 33.8315C183.77 37.6359 180.793 49.1848 174.162 49.1848C171.727 49.1848 168.749 46.7392 165.772 43.0707Z" fill="#B3B3B3"/>
<path d="M176.327 41.712C175.515 42.799 174.568 43.2066 173.485 43.2066C169.561 43.2066 153.593 17.1196 153.593 14.1305C153.593 12.6359 156.976 8.01636 156.299 8.01636C157.247 8.01636 158.194 9.64679 158.194 9.91853C158.194 10.1903 156.57 13.3153 156.57 14.1305C156.57 17.2555 171.862 41.712 176.327 41.712Z" fill="white"/>
<path d="M191.213 41.712C192.025 42.799 192.972 43.2066 194.055 43.2066C197.979 43.2066 213.947 17.1196 213.947 14.1305C213.947 12.6359 210.564 8.01636 211.241 8.01636C210.294 8.01636 209.346 9.64679 209.346 9.91853C209.346 10.1903 210.97 13.3153 210.97 14.1305C211.106 17.2555 195.679 41.712 191.213 41.712Z" fill="white"/>
<path opacity="0.4" d="M153.593 8.01636C154.54 8.01636 155.487 8.01636 156.299 8.01636C156.976 8.01636 153.593 12.7718 153.593 14.2664C153.593 16.712 164.148 34.3751 170.238 41.0327C169.02 42.1196 167.802 43.3424 166.584 44.5653C157.923 34.2392 149.533 15.3533 149.533 14.1305C149.669 12.9077 152.646 8.01636 153.593 8.01636Z" fill="url(#paint1_linear)"/>
<path d="M214.083 8.01636C213.136 8.01636 212.188 8.01636 211.376 8.01636C210.7 8.01636 214.083 12.7718 214.083 14.2664C214.083 17.3914 198.115 43.3424 194.19 43.3424C186.612 43.3424 186.071 14.1305 186.071 12.2283C186.071 11.549 184.582 11.549 183.905 11.549C183.229 11.549 181.74 11.549 181.74 12.2283C181.74 14.1305 181.334 43.3424 173.621 43.3424C169.696 43.3424 153.728 17.2555 153.728 14.2664C153.728 12.7718 157.111 8.01636 156.435 8.01636C155.623 8.01636 154.675 8.01636 153.728 8.01636C152.781 8.01636 149.804 13.0435 149.804 14.1305C149.804 15.7609 165.095 49.5924 174.433 49.5924C181.064 49.5924 184.041 38.0435 184.041 34.2392C184.041 38.0435 187.018 49.5924 193.649 49.5924C202.986 49.5924 218.278 15.7609 218.278 14.1305C218.007 12.9077 214.895 8.01636 214.083 8.01636Z" fill="white"/>
<path opacity="0.27" d="M214.083 8.01636C213.136 8.01636 212.188 8.01636 211.376 8.01636C210.7 8.01636 214.083 12.7718 214.083 14.2664C214.083 17.3914 198.115 43.3424 194.19 43.3424C186.612 43.3424 186.071 14.1305 186.071 12.2283C186.071 11.549 184.582 11.549 183.905 11.549C183.229 11.549 181.74 11.549 181.74 12.2283C181.74 14.1305 181.334 43.3424 173.621 43.3424C169.696 43.3424 153.728 17.2555 153.728 14.2664C153.728 12.7718 157.111 8.01636 156.435 8.01636C155.623 8.01636 154.675 8.01636 153.728 8.01636C152.781 8.01636 149.804 13.0435 149.804 14.1305C149.804 15.7609 165.095 49.5924 174.433 49.5924C181.064 49.5924 184.041 38.0435 184.041 34.2392C184.041 38.0435 187.018 49.5924 193.649 49.5924C202.986 49.5924 218.278 15.7609 218.278 14.1305C218.007 12.9077 214.895 8.01636 214.083 8.01636Z" fill="url(#paint2_linear)"/>
<path opacity="0.9" d="M211.376 8.01636H211.241C211.106 8.01636 210.97 8.15223 210.7 8.2881C210.564 8.42397 210.294 8.6957 210.158 8.96744C210.023 9.23918 209.752 9.51092 209.752 9.91853C209.752 10.1903 210.023 10.7337 210.158 11.1414C210.429 11.549 210.564 11.9566 210.835 12.5001C211.106 13.0435 211.376 13.4511 211.512 14.1305C211.512 14.8098 211.241 15.3533 211.106 15.8968C210.294 18.0707 209.076 19.9729 208.128 21.3316C207.181 22.6903 206.505 23.6414 206.505 23.6414C206.505 23.6414 206.64 23.3696 206.775 22.962C201.904 31.1142 194.19 41.8479 191.213 41.8479C192.025 42.9348 192.972 43.3424 194.055 43.3424C197.979 43.3424 213.947 17.2555 213.947 14.2664C213.947 12.6359 210.7 8.01636 211.376 8.01636Z" fill="url(#paint3_linear)"/>
<path opacity="0.6" d="M241.554 78.6685C241.284 78.3968 241.013 77.8533 240.607 77.1739C240.201 76.4946 239.795 75.8152 239.118 74.8642C238.577 74.0489 237.765 73.0979 237.089 72.0109C236.277 71.0598 235.465 69.9729 234.517 68.75C233.57 67.6631 232.623 66.4402 231.54 65.2174C230.458 64.1305 229.375 62.7718 228.157 61.6848C226.939 60.462 225.721 59.375 224.503 58.1522C223.285 56.9294 221.932 55.8424 220.714 54.7555C219.361 53.6685 218.143 52.7174 216.79 51.7663C214.219 49.8642 211.783 48.2337 209.618 46.875C207.452 45.5163 205.558 44.4294 204.205 43.75C203.528 43.3424 202.987 43.0707 202.581 42.9348C202.445 43.0707 202.31 43.3424 202.175 43.4783C202.581 43.6142 203.122 43.8859 203.934 44.2935C205.287 44.9729 207.182 45.9239 209.347 47.2826C211.512 48.6413 213.948 50.2718 216.519 52.1739C217.872 53.125 219.09 54.0761 220.444 55.1631C221.662 56.25 223.015 57.337 224.368 58.4239C225.586 59.5109 226.939 60.7337 228.022 61.8207C229.24 62.9076 230.322 64.2663 231.405 65.3533C232.488 66.5761 233.435 67.6631 234.517 68.75C235.465 69.837 236.277 70.9239 237.089 72.0109C237.9 73.0979 238.577 74.0489 239.118 74.8642C239.795 75.6794 240.201 76.4946 240.607 77.0381C241.013 77.8533 241.284 78.3968 241.554 78.6685C241.825 78.9402 241.825 79.212 241.825 79.212C241.825 79.212 241.69 78.9402 241.554 78.6685Z" fill="url(#paint4_linear)"/>
<path opacity="0.7" d="M196.491 48.7772C196.491 48.7772 196.491 48.9131 196.491 48.7772C196.491 48.7772 196.627 48.6414 196.762 48.6414C196.762 48.6414 196.627 48.7772 196.491 48.7772Z" fill="url(#paint5_linear)"/>
<path opacity="0.7" d="M200.957 44.837C200.957 44.9729 200.957 44.9729 200.957 44.837C200.822 44.9729 200.822 44.9728 200.822 44.9728C200.551 45.3805 200.145 45.6522 199.875 46.0598C199.739 46.1957 199.604 46.3315 199.469 46.4674C198.657 47.2826 197.709 47.962 196.897 48.5055C200.551 46.1957 203.934 45.5163 208.129 46.3315C205.017 44.4294 204.34 44.1576 202.31 43.2065C201.904 43.8859 201.498 44.4294 200.957 44.837Z" fill="url(#paint6_linear)"/>
<path opacity="0.5" d="M227.616 68.8858C227.21 68.4782 226.668 67.9347 226.127 67.5271C225.586 67.1195 225.18 66.576 224.639 66.0325C224.097 65.6249 223.556 65.0814 223.015 64.6738C222.473 64.1303 221.932 63.7227 221.255 63.1793C220.714 62.7716 220.038 62.2282 219.361 61.8206C218.143 60.8695 216.79 59.9184 215.301 58.9673C212.459 57.201 209.347 55.4347 205.964 53.9401C202.581 52.4456 198.927 51.2227 195.273 50.5434C191.484 49.7282 187.56 49.3206 183.635 49.3206C179.711 49.3206 175.786 49.7282 172.133 50.6793C168.344 51.4945 164.825 52.7173 161.442 54.2119C154.676 57.201 148.992 61.1412 144.526 64.9456C140.061 68.7499 136.678 72.4184 134.512 75.1358C133.43 76.4945 132.618 77.5814 132.077 78.2608C131.941 78.5325 131.806 78.6684 131.671 78.8043C131.535 78.9401 131.4 79.076 131.265 79.3477C131.265 79.3477 151.293 53.2608 183.635 52.989C215.03 52.5814 236.141 79.3477 236.141 79.3477C233.57 75.6793 230.728 72.2825 227.751 69.2934C227.751 69.1575 227.751 69.0217 227.616 68.8858Z" fill="url(#paint7_linear)"/>
<path opacity="0.72" d="M201.092 52.174C202.851 52.7174 204.475 53.3968 206.099 54.0761C204.475 53.3968 202.716 52.7174 200.821 52.0381C200.957 52.174 200.957 52.174 201.092 52.174Z" fill="white"/>
<path opacity="0.72" d="M204.204 48.2338C202.445 47.4186 200.415 47.5545 198.791 48.7773C198.115 49.3208 197.438 49.7284 196.626 50.2719C200.009 51.0871 203.257 52.174 206.369 53.5327C209.752 55.0273 212.865 56.7936 215.707 58.5599C217.06 59.511 218.549 60.4621 219.766 61.4132C220.443 61.9566 220.984 62.3642 221.661 62.9077C222.202 63.4512 222.879 63.8588 223.42 64.4023C223.962 64.9458 224.503 65.3534 225.044 65.8969C225.585 66.4403 225.991 66.8479 226.533 67.3914C226.668 67.5273 226.803 67.5273 226.803 67.6632C230.051 70.6523 233.028 74.1849 235.599 77.9893C236.141 78.6686 236.411 79.0762 236.411 79.0762C236.411 79.0762 236.141 78.8045 235.735 78.261C235.87 78.5327 236.141 78.8045 236.276 79.0762C236.547 79.0762 237.223 79.0762 237.494 79.0762C231.269 66.9838 216.925 53.9403 204.204 48.2338Z" fill="white"/>
<path opacity="0.72" d="M217.737 60.5978C217.06 60.0544 216.248 59.6468 215.437 59.1033C216.248 59.5109 216.925 60.0544 217.737 60.5978Z" fill="white"/>
<path opacity="0.72" d="M145.474 63.8586C149.804 60.326 155.082 56.6576 161.307 53.9402C164.419 52.5815 167.667 51.3586 171.185 50.5434C171.185 50.5434 171.185 50.4076 171.05 50.4076C170.373 49.8641 169.561 49.4565 168.885 48.913C167.261 47.826 165.231 47.5543 163.472 48.3695C150.887 53.9402 136.407 67.1195 130.317 79.3478C130.588 79.3478 131.129 79.3478 131.535 79.3478C135.324 72.9619 140.331 67.9347 145.474 63.8586Z" fill="white"/>
<g opacity="0.6">
<path opacity="0.6" d="M131.399 79.4836C131.399 79.4836 131.67 79.076 132.211 78.2608C132.753 77.4456 133.565 76.3586 134.647 74.9999C136.812 72.2825 140.06 68.4782 144.526 64.6738C148.992 60.8695 154.675 56.7934 161.441 53.8043C164.825 52.3097 168.478 50.951 172.267 50.1358C176.056 49.1847 179.981 48.7771 183.905 48.7771C187.83 48.7771 191.754 49.3206 195.543 50.1358C199.332 50.951 202.986 52.1738 206.369 53.6684C209.752 55.163 212.865 56.9293 215.707 58.6956C217.06 59.6467 218.548 60.5977 219.766 61.5488C220.443 62.0923 220.984 62.4999 221.661 63.0434C222.202 63.5869 222.879 63.9945 223.42 64.538C223.961 65.0814 224.503 65.489 225.044 66.0325C225.585 66.576 225.991 66.9836 226.533 67.5271C227.074 67.9347 227.48 68.4782 227.886 68.8858C228.292 69.2934 228.698 69.8369 229.104 70.2445C230.728 72.0108 232.081 73.6412 233.163 74.9999C234.246 76.3586 235.058 77.4456 235.599 78.2608C236.141 78.9401 236.411 79.3477 236.411 79.3477C236.411 79.3477 236.141 78.9401 235.599 78.2608C235.058 77.5814 234.246 76.3586 233.163 75.1358C232.081 73.7771 230.728 72.1467 229.104 70.5162C228.698 70.1086 228.292 69.701 227.886 69.1575C227.48 68.7499 226.938 68.2064 226.397 67.7988C225.856 67.3912 225.45 66.8477 224.909 66.3043C224.367 65.8967 223.826 65.3532 223.285 64.9456C222.743 64.4021 222.202 63.9945 221.526 63.451C220.984 63.0434 220.308 62.4999 219.631 62.0923C218.413 61.1412 217.06 60.1901 215.571 59.239C212.729 57.4727 209.617 55.7064 206.234 54.2119C202.851 52.7173 199.197 51.4945 195.543 50.8151C191.754 49.9999 187.83 49.5923 183.905 49.5923C179.981 49.5923 176.056 49.9999 172.403 50.951C168.614 51.7662 165.095 52.9891 161.712 54.4836C154.946 57.4727 149.262 61.413 144.797 65.2173C140.331 69.0217 136.948 72.6901 134.783 75.4075C133.7 76.7662 132.888 77.8532 132.347 78.5325C131.67 79.076 131.399 79.4836 131.399 79.4836Z" fill="url(#paint8_linear)"/>
</g>
<path opacity="0.7" d="M170.373 48.2336C169.291 47.4184 168.073 46.3314 166.855 45.1086C166.584 44.8369 166.314 44.5651 166.043 44.2934C165.772 44.0216 165.502 43.614 165.231 43.3423C165.366 43.4782 165.366 43.4782 165.502 43.614C165.096 43.7499 164.554 44.0216 163.742 44.4292C163.337 44.701 162.795 44.9727 162.254 45.2445C165.502 45.1086 166.72 45.9238 170.373 48.2336C170.509 48.3695 170.509 48.3695 170.373 48.2336Z" fill="url(#paint9_linear)"/>
<path opacity="0.6" d="M165.096 43.0706C164.69 43.2064 164.148 43.4782 163.472 43.8858C162.119 44.5651 160.224 45.6521 158.059 47.0108C155.894 48.3695 153.458 49.9999 150.887 52.0379C149.533 52.989 148.315 54.076 146.962 55.0271C145.744 56.114 144.391 57.201 143.173 58.4238C141.955 59.5108 140.737 60.7336 139.519 61.9564C138.301 63.1792 137.219 64.4021 136.136 65.489C135.054 66.7118 134.106 67.7988 133.159 69.0216C132.212 70.1086 131.4 71.3314 130.588 72.2825C129.911 73.3695 129.099 74.3205 128.558 75.1358C127.881 75.951 127.475 76.7662 127.069 77.4455C126.258 78.6684 125.852 79.4836 125.852 79.4836C125.852 79.4836 126.258 78.8042 127.205 77.5814C127.611 76.9021 128.152 76.2227 128.693 75.4075C129.37 74.5923 130.047 73.6412 130.723 72.5542C131.535 71.6032 132.347 70.5162 133.294 69.2934C134.242 68.2064 135.324 66.9836 136.407 65.8966C137.489 64.8097 138.572 63.5869 139.79 62.364C141.008 61.1412 142.226 60.0542 143.444 58.9673C144.662 57.8803 146.015 56.7934 147.368 55.7064C148.721 54.6195 149.939 53.6684 151.293 52.7173C153.864 50.8151 156.3 49.1847 158.465 47.826C160.63 46.4673 162.525 45.5162 163.878 44.8369C164.69 44.4293 165.231 44.1575 165.637 44.0216C165.502 43.3423 165.366 43.2064 165.096 43.0706Z" fill="url(#paint10_linear)"/>
<path opacity="0.4" d="M228.021 69.4294C227.886 69.2935 227.75 69.1576 227.615 69.0218C227.209 68.6141 226.668 68.0707 226.127 67.6631C225.585 67.2555 225.179 66.712 224.638 66.1685C224.097 65.7609 223.555 65.2174 223.014 64.8098C222.473 64.2663 221.931 63.8587 221.255 63.3152C220.714 62.9076 220.037 62.3641 219.36 61.9565C218.142 61.0055 216.789 60.0544 215.301 59.1033C212.459 57.337 209.346 55.5707 205.963 54.0761C202.58 52.5815 198.926 51.3587 195.273 50.6794C191.483 49.8641 187.559 49.4565 183.635 49.4565C179.71 49.4565 175.786 49.8642 172.132 50.8152C168.343 51.6305 164.825 52.8533 161.441 54.3478C154.675 57.337 148.992 61.2772 144.526 65.0815C140.06 68.8859 136.677 72.5544 134.512 75.2718C133.429 76.6305 132.617 77.7174 132.076 78.3968C131.805 78.8044 131.67 79.0761 131.535 79.212C131.535 79.3478 131.399 79.3478 131.399 79.4837H142.09C142.902 78.6685 143.714 77.7174 144.661 76.9022L144.255 77.3098L142.225 79.3478L144.255 77.1739L146.42 75.1359L148.586 73.2337L150.886 71.4674L153.322 69.837L155.758 68.3424C156.57 67.9348 157.517 67.3913 158.329 66.9837C159.276 66.5761 160.088 66.1685 160.9 65.7609C161.847 65.3533 162.659 64.9457 163.607 64.6739C164.554 64.4022 165.501 63.9946 166.313 63.7228C167.26 63.4511 168.208 63.1794 169.155 62.9076C170.102 62.6359 171.049 62.3641 171.997 62.2283C172.944 62.0924 173.891 61.8207 174.839 61.6848L177.816 61.2772L180.793 61.0055L183.77 60.8696L186.747 61.0055L189.724 61.2772C190.672 61.4131 191.619 61.5489 192.701 61.6848C193.649 61.8207 194.596 62.0924 195.543 62.2283C196.49 62.5 197.438 62.6359 198.385 62.9076C199.332 63.1794 200.28 63.4511 201.227 63.7228C202.174 63.9946 203.121 64.4022 203.933 64.6739C204.881 65.0815 205.693 65.4892 206.64 65.7609C207.587 66.1685 208.399 66.5761 209.346 66.9837C210.158 67.3913 211.106 67.9348 211.917 68.3424C212.729 68.8859 213.541 69.4294 214.353 69.837L216.789 71.4674L219.09 73.2337L221.255 75.1359L223.42 77.1739L225.45 79.3478L223.42 77.3098L221.255 75.4076L218.954 73.5055L217.872 72.6902C220.578 74.7283 223.149 77.0381 225.45 79.4837H236.276C233.569 75.6794 230.863 72.4185 228.021 69.4294Z" fill="url(#paint11_linear)"/>
<g opacity="0.6">
<path opacity="0.6" d="M225.451 79.2119L223.421 77.1739L221.256 75.2717L218.955 73.3695L216.655 71.6032L214.219 69.9728C213.407 69.4293 212.595 69.0217 211.783 68.4782C210.971 68.0706 210.024 67.5271 209.212 67.1195C208.265 66.7119 207.453 66.3043 206.641 65.8967C204.882 65.0815 202.987 64.4021 201.228 63.8586C200.28 63.5869 199.333 63.3152 198.386 63.0434C197.439 62.7717 196.491 62.6358 195.544 62.3641C194.597 62.2282 193.65 61.9565 192.702 61.8206C191.755 61.6847 190.808 61.5489 189.86 61.413L187.019 61.1413L184.177 61.0054L181.2 61.1413L178.358 61.413L175.516 61.8206C174.569 61.9565 173.622 62.2282 172.674 62.3641C171.727 62.4999 170.78 62.7717 169.832 63.0434C168.885 63.3152 167.938 63.5869 166.991 63.8586C165.096 64.4021 163.337 65.2173 161.578 65.8967C160.63 66.3043 159.818 66.7119 159.007 67.1195C158.195 67.5271 157.247 68.0706 156.435 68.4782L154 69.9728L151.564 71.6032L149.263 73.3695L146.963 75.2717L144.797 77.1739L142.768 79.2119L144.797 77.038L146.963 74.9999L149.128 73.0978L151.428 71.3315L153.864 69.701L156.3 68.2065C157.112 67.7989 158.059 67.2554 158.871 66.8478C159.818 66.4402 160.63 66.0326 161.442 65.6249C162.39 65.2173 163.202 64.8097 164.149 64.538C165.096 64.2662 166.043 63.8586 166.855 63.5869C167.803 63.3152 168.75 63.0434 169.697 62.7717C170.644 62.4999 171.592 62.2282 172.539 62.0923C173.486 61.9565 174.434 61.6847 175.381 61.5489L178.358 61.1413L181.335 60.8695L184.312 60.7336L187.289 60.8695L190.266 61.1413C191.214 61.2771 192.161 61.413 193.244 61.5489C194.191 61.6847 195.138 61.9565 196.085 62.0923C197.033 62.3641 197.98 62.4999 198.927 62.7717C199.875 63.0434 200.822 63.3152 201.769 63.5869C202.716 63.8586 203.664 64.2662 204.476 64.538C205.423 64.9456 206.235 65.3532 207.182 65.6249C208.129 66.0326 208.941 66.4402 209.889 66.8478C210.7 67.2554 211.648 67.7989 212.46 68.2065C213.272 68.7499 214.084 69.2934 214.896 69.701L217.331 71.3315L219.632 73.0978L221.797 74.9999L223.962 77.038L225.451 79.2119Z" fill="url(#paint12_linear)"/>
</g>
<path opacity="0.6" d="M173.891 49.8641C174.839 49.7282 175.786 49.4565 176.868 49.3206C180.928 47.4184 183.229 41.3043 184.041 37.0923C184.853 41.3043 187.153 47.4184 191.078 49.3206C192.16 49.4565 193.243 49.5923 194.19 49.8641C203.663 48.3695 218.548 16.3043 218.548 14.1304C218.548 12.9076 215.436 7.60864 214.218 7.60864H211.512H211.241L211.106 7.74451C210.97 8.01625 211.106 8.55973 212.188 10.4619C212.865 11.6847 213.812 13.451 213.812 14.1304C213.812 17.3912 197.844 42.9347 194.19 42.9347C187.83 42.9347 186.476 20.1086 186.476 12.2282C186.476 11.2771 184.988 11.2771 184.041 11.2771H183.905C182.958 11.2771 181.469 11.2771 181.469 12.2282C181.469 20.2445 179.981 42.9347 173.756 42.9347C170.238 42.9347 154.134 17.3912 154.134 14.1304C154.134 13.451 155.081 11.6847 155.758 10.4619C156.84 8.55973 156.976 8.15212 156.84 7.74451L156.705 7.60864H153.863C152.645 7.60864 149.533 12.9076 149.533 14.1304C149.262 16.1684 164.283 48.7771 173.891 49.8641ZM153.593 8.28799H156.028C155.893 8.6956 155.487 9.51082 155.081 10.1902C154.134 12.0923 153.322 13.451 153.322 14.2663C153.322 17.2554 169.29 43.7499 173.621 43.7499C182.011 43.7499 182.011 12.6358 182.011 12.3641C182.011 12.3641 182.011 12.0923 183.77 12.0923H183.905C185.665 12.0923 185.665 12.3641 185.665 12.3641C185.665 12.6358 185.8 43.7499 194.055 43.7499C198.25 43.7499 214.353 17.2554 214.353 14.2663C214.353 13.451 213.677 12.0923 212.594 10.1902C212.188 9.51082 211.782 8.6956 211.647 8.28799H214.083C214.759 8.42386 217.736 13.0434 217.736 14.1304C217.601 16.3043 202.309 49.1847 193.378 49.1847C187.018 49.1847 184.176 37.6358 184.176 34.1032H183.499C183.499 37.6358 180.658 49.1847 174.297 49.1847C165.366 49.1847 150.074 16.1684 149.939 14.1304C149.939 13.0434 152.916 8.42386 153.593 8.28799Z" fill="#666666"/>
<path d="M180.929 48.7772C182.823 46.3315 183.771 44.0217 183.771 42.7989C183.771 44.1576 184.718 46.3315 186.748 48.7772C188.372 48.913 189.995 49.0489 191.619 49.3207C186.342 47.2826 183.771 37.5 183.771 34.1033C183.771 37.5 181.47 47.4185 176.192 49.3207C177.816 49.1848 179.305 48.913 180.929 48.7772Z" fill="#4D4D4D"/>
<g opacity="0.62">
<path opacity="0.62" d="M188.101 33.6956C188.101 33.6956 187.966 33.288 187.83 32.6086C187.695 31.9293 187.424 30.8423 187.154 29.6195C186.883 28.3967 186.748 27.038 186.477 25.4076C186.342 23.913 186.071 22.2826 185.936 20.5163C185.801 18.8858 185.801 17.2554 185.665 15.6249C185.665 14.8097 185.665 14.1304 185.665 13.451C185.665 13.0434 185.665 12.7717 185.665 12.3641C185.665 12.2282 185.665 12.0923 185.665 12.0923C185.665 11.9565 185.53 11.9565 185.395 11.9565C184.853 11.8206 184.312 11.8206 183.771 11.8206C183.229 11.8206 182.823 11.8206 182.553 11.8206C182.147 11.8206 181.876 11.9565 181.741 12.0923C181.605 12.2282 181.605 12.3641 181.605 12.3641C181.605 12.3641 181.605 12.2282 181.741 12.0923C181.876 11.9565 182.147 11.8206 182.553 11.6847C182.959 11.5489 183.365 11.5489 183.906 11.5489C184.447 11.5489 184.989 11.413 185.665 11.6847C185.801 11.6847 186.071 11.8206 186.206 11.9565C186.477 12.0923 186.342 12.4999 186.342 12.4999C186.342 12.7717 186.342 13.1793 186.342 13.5869C186.342 14.2663 186.477 15.0815 186.477 15.7608C186.612 17.2554 186.612 18.8858 186.748 20.6521C186.883 22.2826 187.018 23.913 187.154 25.4076C187.289 26.9021 187.424 28.3967 187.56 29.6195C187.695 30.8423 187.83 31.9293 187.966 32.6086C188.101 33.288 188.101 33.6956 188.101 33.6956Z" fill="url(#paint13_linear)"/>
</g>
<g opacity="0.9">
<path opacity="0.9" d="M180.387 28.6685C180.387 28.6685 180.252 29.4837 180.117 30.9783C179.846 32.4729 179.575 34.5109 178.899 36.8207C178.493 38.0435 178.087 39.2663 177.41 40.625C177.004 41.3044 176.598 41.8479 176.192 42.5272C175.651 43.0707 174.974 43.6142 174.163 43.75C174.027 43.75 174.027 43.75 173.892 43.75C173.757 43.75 173.757 43.75 173.621 43.75C173.351 43.75 173.215 43.6142 172.945 43.4783C172.539 43.3424 172.268 43.0707 171.862 42.799C171.185 42.2555 170.644 41.712 170.103 41.1685C169.02 39.9457 167.938 38.7229 166.855 37.3642C164.825 34.7827 162.931 31.9294 161.307 29.212C159.683 26.6305 158.194 24.049 156.976 21.8751C155.758 19.7011 154.946 17.799 154.405 16.4403C154.134 15.7609 153.999 15.2174 153.864 14.8098C153.729 14.4022 153.729 14.2664 153.729 14.2664C153.729 14.2664 153.729 14.5381 153.864 14.8098C153.999 15.2174 154.134 15.7609 154.54 16.3044C155.217 17.6631 156.164 19.4294 157.382 21.6033C159.818 25.9511 163.337 31.5218 167.261 36.9566C168.208 38.3153 169.291 39.5381 170.373 40.7609C170.915 41.3044 171.456 41.9837 172.133 42.3913C172.809 42.799 173.351 43.3424 174.027 43.2066C174.704 43.2066 175.38 42.6631 175.922 42.2555C176.463 41.712 176.869 41.1685 177.14 40.4892C177.816 39.2663 178.222 38.0435 178.628 36.8207C179.44 34.5109 179.846 32.4729 180.117 30.9783C180.252 29.4837 180.387 28.6685 180.387 28.6685Z" fill="url(#paint14_linear)"/>
</g>
<path opacity="0.9" d="M176.057 41.9836C175.651 41.8478 174.974 41.576 174.297 41.1684C173.079 40.3532 171.591 38.8586 169.967 36.9565C166.855 33.1521 163.065 27.7173 159.818 22.0108C159.006 20.5162 158.194 19.1575 157.517 17.663C157.111 16.9836 156.841 16.1684 156.57 15.4891C156.435 15.0814 156.299 14.6738 156.299 14.2662C156.299 13.8586 156.435 13.451 156.705 13.1793C156.976 12.4999 157.382 11.8206 157.653 11.1412C157.788 10.8695 157.923 10.4619 158.058 10.1901C158.058 9.78253 157.923 9.5108 157.653 9.23906C157.382 8.83145 157.111 8.55971 156.705 8.42384V8.28797C156.57 8.28797 156.435 8.1521 156.299 8.1521C156.976 8.1521 153.593 12.9075 153.593 14.2662C153.593 17.3912 169.561 43.3423 173.485 43.3423C174.568 43.3423 175.515 42.7988 176.327 41.8478H176.192C176.192 41.7119 176.192 41.8478 176.057 41.9836Z" fill="url(#paint15_linear)"/>
<path d="M156.706 8.15224C157.112 8.28811 157.382 8.55985 157.653 8.96746C157.788 9.23919 158.059 9.51093 158.059 9.91854C158.059 10.1903 157.924 10.5979 157.653 10.8696C157.382 11.549 156.976 12.2283 156.706 12.9077C156.57 13.3153 156.435 13.587 156.3 13.9946C156.3 14.4022 156.435 14.8098 156.57 15.2175C156.841 16.0327 157.112 16.712 157.518 17.3914C158.194 18.8859 159.006 20.2446 159.818 21.7392C163.066 27.4457 166.855 32.8805 169.968 36.6848C171.591 38.587 173.08 40.0816 174.298 40.8968C174.839 41.3044 175.651 41.5761 176.057 41.712C176.193 41.5761 176.328 41.3044 176.463 41.1685C176.463 41.1685 176.193 41.0327 176.057 41.0327C175.787 40.8968 175.245 40.7609 174.704 40.3533C173.621 39.5381 172.133 38.1794 170.509 36.2772C167.261 32.6088 163.607 27.174 160.224 21.4675C159.412 20.1088 158.6 18.6142 157.924 17.1196C157.518 16.4403 157.247 15.6251 156.976 14.9457C156.841 14.5381 156.706 14.2664 156.706 13.8588C156.706 13.4511 156.841 13.1794 156.976 12.7718C157.247 12.0925 157.653 11.4131 157.924 10.7338C158.059 10.3262 158.194 10.0544 158.33 9.6468C158.33 9.23919 158.059 8.96746 157.924 8.55985C157.653 8.15224 157.247 7.8805 156.841 7.74463C156.706 8.01637 156.706 8.15224 156.706 8.15224Z" fill="url(#paint16_linear)"/>
<g opacity="0.9">
<path opacity="0.9" d="M188.643 35.8695C188.643 35.8695 188.778 36.6847 189.184 37.7717C189.455 38.3152 189.725 39.2663 190.131 39.9456C190.537 40.7608 191.078 41.576 191.755 42.2554C192.161 42.663 192.567 42.9347 193.108 43.0706C193.379 43.2065 193.65 43.2065 193.92 43.2065C194.191 43.2065 194.462 43.0706 194.732 42.9347C195.679 42.3913 196.627 41.4402 197.574 40.3532C199.333 38.3152 200.957 36.0054 202.581 33.6956C204.205 31.3858 205.829 28.9402 207.182 26.6304C208.535 24.3206 209.889 22.2826 210.971 20.3804C212.054 18.4782 212.866 16.9836 213.407 15.7608C213.678 15.2173 213.813 14.6739 213.948 14.4021C214.084 14.1304 214.084 13.8586 214.084 13.8586C214.084 13.8586 214.084 13.9945 213.948 14.4021C213.813 14.6739 213.678 15.2173 213.542 15.7608C213.136 16.9836 212.324 18.6141 211.377 20.5163C210.43 22.4184 209.212 24.5923 207.859 26.9021C206.505 29.2119 204.882 31.6576 203.393 33.9673C201.769 36.2771 200.01 38.5869 198.251 40.625C197.303 41.576 196.356 42.5271 195.273 43.2065C195.003 43.3423 194.597 43.4782 194.326 43.4782C194.056 43.4782 193.65 43.4782 193.379 43.3423C192.838 43.0706 192.296 42.7989 191.89 42.3913C191.078 41.576 190.672 40.7608 190.266 39.9456C189.861 39.1304 189.59 38.451 189.455 37.7717C188.778 36.8206 188.643 35.8695 188.643 35.8695Z" fill="url(#paint17_linear)"/>
</g>
<path d="M191.619 42.1196C192.025 41.9838 192.702 41.5761 193.108 41.1685C194.19 40.4892 195.408 39.1305 196.761 37.5001C199.468 34.2392 202.716 29.7555 205.557 24.8642C207.046 22.4185 208.399 20.1088 209.617 17.6631C210.159 16.4403 210.7 15.3533 211.106 14.1305C211.241 13.8588 211.106 13.4511 210.97 13.1794C210.835 12.9077 210.7 12.6359 210.7 12.3642C210.429 11.8207 210.294 11.4131 210.023 10.8696C209.888 10.462 209.482 9.91854 209.482 9.51093C209.617 9.10332 209.888 8.69572 210.159 8.28811C210.429 8.01637 210.7 7.8805 210.97 7.74463C210.7 7.8805 210.429 8.01637 210.159 8.28811C209.888 8.55985 209.617 8.96746 209.482 9.51093C209.482 10.0544 209.753 10.462 210.023 11.0055C210.294 11.549 210.429 11.9566 210.7 12.5001C210.835 13.0435 211.241 13.587 211.106 14.1305C210.835 15.2175 210.294 16.4403 209.617 17.5272C208.399 19.837 206.911 22.2827 205.422 24.5925C202.445 29.3479 199.197 33.8316 196.491 36.9566C195.137 38.587 193.92 39.674 192.972 40.3533C192.431 40.7609 192.025 40.8968 191.89 41.0327C191.754 41.0327 191.484 41.1685 191.348 41.1685C191.213 41.5761 191.484 41.9838 191.619 42.1196Z" fill="url(#paint18_linear)"/>
<path opacity="0.79" d="M210.971 15.7608C211.106 15.2173 211.377 14.6739 211.377 13.9945C211.241 13.3152 210.971 12.9075 210.7 12.3641C210.429 11.9565 210.294 11.413 210.023 11.0054C209.888 10.5978 209.617 10.1902 209.617 9.78254C209.617 9.37494 209.888 9.1032 210.023 8.83146C210.159 8.55972 210.429 8.42385 210.565 8.15211C210.7 8.01624 210.835 8.01624 210.835 8.01624C210.835 8.01624 210.835 8.01624 210.835 7.88037C210.7 7.88037 210.565 8.01624 210.429 8.01624C210.159 8.15211 210.023 8.28798 209.753 8.55972C209.482 8.83146 209.211 9.1032 209.211 9.64668C209.211 10.1902 209.482 10.5978 209.617 11.0054C209.753 11.413 210.023 11.9565 210.159 12.3641C210.294 12.7717 210.565 13.3152 210.7 13.7228C210.7 14.1304 210.429 14.6738 210.294 15.2173C209.482 17.2554 208.399 19.2934 207.723 20.788C206.911 22.2825 206.505 23.3695 206.505 23.3695C206.505 23.3695 207.181 22.4184 208.129 21.0597C208.941 19.8369 210.159 17.7989 210.971 15.7608Z" fill="url(#paint19_linear)"/>
<path d="M183.905 118.206C184.952 118.206 185.8 117.355 185.8 116.304C185.8 115.254 184.952 114.402 183.905 114.402C182.859 114.402 182.011 115.254 182.011 116.304C182.011 117.355 182.859 118.206 183.905 118.206Z" fill="#333333"/>
<path d="M233.569 115.761C228.292 115.489 221.119 115.353 214.083 115.082C210.564 114.946 207.046 114.81 203.663 114.81C200.28 114.81 197.302 114.946 194.596 115.082C189.318 115.489 185.8 116.033 185.8 116.033V116.169V116.304C185.8 116.304 189.318 116.848 194.596 117.255C197.302 117.391 200.28 117.527 203.663 117.527C207.046 117.527 210.564 117.255 214.083 117.255C221.119 116.984 228.292 116.848 233.569 116.576C238.847 116.44 242.365 116.169 242.365 116.169V115.897C242.365 116.169 238.847 116.033 233.569 115.761Z" fill="#333333"/>
<path d="M173.215 115.217C170.508 115.081 167.531 114.946 164.148 114.946C160.765 114.946 157.247 115.217 153.728 115.217C146.691 115.489 139.519 115.625 134.241 115.897C128.964 116.033 125.445 116.304 125.445 116.304V116.576C125.445 116.576 128.964 116.712 134.241 116.984C139.519 117.255 146.691 117.391 153.728 117.663C157.247 117.799 160.765 117.935 164.148 117.935C167.531 117.935 170.508 117.799 173.215 117.663C178.493 117.255 182.011 116.712 182.011 116.712V116.576V116.44C182.146 116.168 178.628 115.489 173.215 115.217Z" fill="#333333"/>
<defs>
<linearGradient id="paint0_linear" x1="159.446" y1="34.3194" x2="217.887" y2="6.58814" gradientUnits="userSpaceOnUse">
<stop stop-color="#FCEE21"/>
<stop offset="0.00175324" stop-color="#FBEC21"/>
<stop offset="0.0587998" stop-color="#ECBD2D"/>
<stop offset="0.1175" stop-color="#DE9437"/>
<stop offset="0.1772" stop-color="#D3733F"/>
<stop offset="0.2381" stop-color="#CB5946"/>
<stop offset="0.3008" stop-color="#C5474A"/>
<stop offset="0.3661" stop-color="#C13C4D"/>
<stop offset="0.4387" stop-color="#C0384E"/>
<stop offset="0.4919" stop-color="#A94965"/>
<stop offset="0.6113" stop-color="#7A6C94"/>
<stop offset="0.7254" stop-color="#5687B8"/>
<stop offset="0.8313" stop-color="#3B9AD3"/>
<stop offset="0.926" stop-color="#2CA6E2"/>
<stop offset="1" stop-color="#26AAE8"/>
</linearGradient>
<linearGradient id="paint1_linear" x1="170.513" y1="44.7725" x2="150.142" y2="7.04515" gradientUnits="userSpaceOnUse">
<stop stop-color="white" stop-opacity="0"/>
<stop offset="0.0206228" stop-color="#F0F0F0" stop-opacity="0.0171612"/>
<stop offset="0.1013" stop-color="#B8B8B8" stop-opacity="0.084259"/>
<stop offset="0.1845" stop-color="#878787" stop-opacity="0.1536"/>
<stop offset="0.2687" stop-color="#5D5D5D" stop-opacity="0.2236"/>
<stop offset="0.3539" stop-color="#3C3C3C" stop-opacity="0.2945"/>
<stop offset="0.4405" stop-color="#212121" stop-opacity="0.3666"/>
<stop offset="0.5292" stop-color="#0F0F0F" stop-opacity="0.4403"/>
<stop offset="0.621" stop-color="#040404" stop-opacity="0.5167"/>
<stop offset="0.721" stop-opacity="0.6"/>
<stop offset="0.7755" stop-color="#424242" stop-opacity="0.678"/>
<stop offset="0.836" stop-color="#848484" stop-opacity="0.7648"/>
<stop offset="0.891" stop-color="#B9B9B9" stop-opacity="0.8437"/>
<stop offset="0.9383" stop-color="#DFDFDF" stop-opacity="0.9116"/>
<stop offset="0.9763" stop-color="#F6F6F6" stop-opacity="0.966"/>
<stop offset="1" stop-color="white"/>
</linearGradient>
<linearGradient id="paint2_linear" x1="149.665" y1="28.7653" x2="218.043" y2="28.7653" gradientUnits="userSpaceOnUse">
<stop stop-color="white"/>
<stop offset="0.0064804" stop-color="#FEFEFE"/>
<stop offset="0.3548" stop-color="#BDBDBD"/>
<stop offset="0.6482" stop-color="#8E8E8E"/>
<stop offset="0.8721" stop-color="#717171"/>
<stop offset="1" stop-color="#666666"/>
</linearGradient>
<linearGradient id="paint3_linear" x1="202.612" y1="-8.69465" x2="202.612" y2="45.2465" gradientUnits="userSpaceOnUse">
<stop stop-color="white" stop-opacity="0"/>
<stop offset="0.0212727" stop-color="#F4F4F4" stop-opacity="0.0170182"/>
<stop offset="0.1358" stop-color="#BBBBBB" stop-opacity="0.1087"/>
<stop offset="0.2539" stop-color="#898989" stop-opacity="0.2031"/>
<stop offset="0.3728" stop-color="#5F5F5F" stop-opacity="0.2982"/>
<stop offset="0.4928" stop-color="#3D3D3D" stop-opacity="0.3943"/>
<stop offset="0.6143" stop-color="#222222" stop-opacity="0.4915"/>
<stop offset="0.7378" stop-color="#0F0F0F" stop-opacity="0.5903"/>
<stop offset="0.8646" stop-color="#040404" stop-opacity="0.6917"/>
<stop offset="1" stop-opacity="0.8"/>
</linearGradient>
<linearGradient id="paint4_linear" x1="202.143" y1="61.0343" x2="242.209" y2="61.0343" gradientUnits="userSpaceOnUse">
<stop/>
<stop offset="0.1442" stop-color="#030303" stop-opacity="0.8425"/>
<stop offset="0.2631" stop-color="#0D0D0D" stop-opacity="0.7127"/>
<stop offset="0.3731" stop-color="#1F1F1F" stop-opacity="0.5927"/>
<stop offset="0.4776" stop-color="#373737" stop-opacity="0.4785"/>
<stop offset="0.5784" stop-color="#565656" stop-opacity="0.3685"/>
<stop offset="0.6763" stop-color="#7D7D7D" stop-opacity="0.2616"/>
<stop offset="0.7719" stop-color="#AAAAAA" stop-opacity="0.1572"/>
<stop offset="0.8633" stop-color="#DEDEDE" stop-opacity="0.0574376"/>
<stop offset="0.9159" stop-color="white" stop-opacity="0"/>
</linearGradient>
<linearGradient id="paint5_linear" x1="196.735" y1="48.7774" x2="196.643" y2="48.6857" gradientUnits="userSpaceOnUse">
<stop stop-color="white" stop-opacity="0"/>
<stop offset="0.1083" stop-color="#DBDBDB" stop-opacity="0.0866374"/>
<stop offset="0.3583" stop-color="#8E8E8E" stop-opacity="0.2867"/>
<stop offset="0.5814" stop-color="#515151" stop-opacity="0.4651"/>
<stop offset="0.7693" stop-color="#252525" stop-opacity="0.6154"/>
<stop offset="0.9147" stop-color="#0A0A0A" stop-opacity="0.7318"/>
<stop offset="1" stop-opacity="0.8"/>
</linearGradient>
<linearGradient id="paint6_linear" x1="206.915" y1="51.7668" x2="201.801" y2="46.6729" gradientUnits="userSpaceOnUse">
<stop stop-color="white" stop-opacity="0"/>
<stop offset="0.1083" stop-color="#DBDBDB" stop-opacity="0.0866374"/>
<stop offset="0.3583" stop-color="#8E8E8E" stop-opacity="0.2867"/>
<stop offset="0.5814" stop-color="#515151" stop-opacity="0.4651"/>
<stop offset="0.7693" stop-color="#252525" stop-opacity="0.6154"/>
<stop offset="0.9147" stop-color="#0A0A0A" stop-opacity="0.7318"/>
<stop offset="1" stop-opacity="0.8"/>
</linearGradient>
<linearGradient id="paint7_linear" x1="183.735" y1="81.2285" x2="183.735" y2="44.3011" gradientUnits="userSpaceOnUse">
<stop stop-color="white" stop-opacity="0"/>
<stop offset="0.2502" stop-color="#BCBCBC" stop-opacity="0.2002"/>
<stop offset="0.7714" stop-color="#363636" stop-opacity="0.6171"/>
<stop offset="1" stop-opacity="0.8"/>
</linearGradient>
<linearGradient id="paint8_linear" x1="131.092" y1="64.0912" x2="236.61" y2="64.0912" gradientUnits="userSpaceOnUse">
<stop stop-color="white" stop-opacity="0"/>
<stop offset="0.027338" stop-color="#DEDEDE" stop-opacity="0.0574405"/>
<stop offset="0.0748358" stop-color="#AAAAAA" stop-opacity="0.1572"/>
<stop offset="0.1245" stop-color="#7D7D7D" stop-opacity="0.2616"/>
<stop offset="0.1754" stop-color="#565656" stop-opacity="0.3685"/>
<stop offset="0.2277" stop-color="#373737" stop-opacity="0.4785"/>
<stop offset="0.2821" stop-color="#1F1F1F" stop-opacity="0.5927"/>
<stop offset="0.3392" stop-color="#0D0D0D" stop-opacity="0.7127"/>
<stop offset="0.401" stop-color="#030303" stop-opacity="0.8425"/>
<stop offset="0.4759"/>
<stop offset="0.5444" stop-color="#040404" stop-opacity="0.8694"/>
<stop offset="0.6105" stop-color="#0F0F0F" stop-opacity="0.7432"/>
<stop offset="0.6758" stop-color="#232323" stop-opacity="0.6187"/>
<stop offset="0.7405" stop-color="#3E3E3E" stop-opacity="0.4952"/>
<stop offset="0.8048" stop-color="#626262" stop-opacity="0.3725"/>
<stop offset="0.8688" stop-color="#8D8D8D" stop-opacity="0.2503"/>
<stop offset="0.9327" stop-color="#C0C0C0" stop-opacity="0.1284"/>
<stop offset="0.9949" stop-color="#FAFAFA" stop-opacity="0.01"/>
<stop offset="1" stop-color="white" stop-opacity="0"/>
</linearGradient>
<linearGradient id="paint9_linear" x1="171.899" y1="52.2757" x2="165.468" y2="45.8703" gradientUnits="userSpaceOnUse">
<stop stop-color="white" stop-opacity="0"/>
<stop offset="0.1083" stop-color="#DBDBDB" stop-opacity="0.0866374"/>
<stop offset="0.3583" stop-color="#8E8E8E" stop-opacity="0.2867"/>
<stop offset="0.5814" stop-color="#515151" stop-opacity="0.4651"/>
<stop offset="0.7693" stop-color="#252525" stop-opacity="0.6154"/>
<stop offset="0.9147" stop-color="#0A0A0A" stop-opacity="0.7318"/>
<stop offset="1" stop-opacity="0.8"/>
</linearGradient>
<linearGradient id="paint10_linear" x1="125.562" y1="61.2379" x2="165.626" y2="61.2379" gradientUnits="userSpaceOnUse">
<stop offset="0.0841379" stop-color="white" stop-opacity="0"/>
<stop offset="0.1367" stop-color="#DEDEDE" stop-opacity="0.0574405"/>
<stop offset="0.2281" stop-color="#AAAAAA" stop-opacity="0.1572"/>
<stop offset="0.3237" stop-color="#7D7D7D" stop-opacity="0.2616"/>
<stop offset="0.4216" stop-color="#565656" stop-opacity="0.3685"/>
<stop offset="0.5224" stop-color="#373737" stop-opacity="0.4785"/>
<stop offset="0.6269" stop-color="#1F1F1F" stop-opacity="0.5927"/>
<stop offset="0.7369" stop-color="#0D0D0D" stop-opacity="0.7127"/>
<stop offset="0.8558" stop-color="#030303" stop-opacity="0.8425"/>
<stop offset="1"/>
</linearGradient>
<linearGradient id="paint11_linear" x1="148.731" y1="97.6067" x2="212.594" y2="58.3306" gradientUnits="userSpaceOnUse">
<stop stop-color="white" stop-opacity="0"/>
<stop offset="0.0607381" stop-color="#C7C7C7" stop-opacity="0.0936291"/>
<stop offset="0.126" stop-color="#939393" stop-opacity="0.1943"/>
<stop offset="0.1924" stop-color="#666666" stop-opacity="0.2966"/>
<stop offset="0.2586" stop-color="#414141" stop-opacity="0.3986"/>
<stop offset="0.3244" stop-color="#252525" stop-opacity="0.5001"/>
<stop offset="0.3899" stop-color="#101010" stop-opacity="0.6011"/>
<stop offset="0.4549" stop-color="#040404" stop-opacity="0.7013"/>
<stop offset="0.519" stop-opacity="0.8"/>
<stop offset="0.5634" stop-color="#070707" stop-opacity="0.7336"/>
<stop offset="0.63" stop-color="#1C1C1C" stop-opacity="0.634"/>
<stop offset="0.7106" stop-color="#3D3D3D" stop-opacity="0.5135"/>
<stop offset="0.802" stop-color="#6C6C6C" stop-opacity="0.3769"/>
<stop offset="0.9011" stop-color="#A7A6A6" stop-opacity="0.2287"/>
<stop offset="1" stop-color="#E9E8E8" stop-opacity="0.0808074"/>
</linearGradient>
<linearGradient id="paint12_linear" x1="141.947" y1="69.9336" x2="225.669" y2="69.9336" gradientUnits="userSpaceOnUse">
<stop stop-color="white" stop-opacity="0"/>
<stop offset="0.027338" stop-color="#DEDEDE" stop-opacity="0.0574405"/>
<stop offset="0.0748358" stop-color="#AAAAAA" stop-opacity="0.1572"/>
<stop offset="0.1245" stop-color="#7D7D7D" stop-opacity="0.2616"/>
<stop offset="0.1754" stop-color="#565656" stop-opacity="0.3685"/>
<stop offset="0.2277" stop-color="#373737" stop-opacity="0.4785"/>
<stop offset="0.2821" stop-color="#1F1F1F" stop-opacity="0.5927"/>
<stop offset="0.3392" stop-color="#0D0D0D" stop-opacity="0.7127"/>
<stop offset="0.401" stop-color="#030303" stop-opacity="0.8425"/>
<stop offset="0.4759"/>
<stop offset="0.5444" stop-color="#040404" stop-opacity="0.8694"/>
<stop offset="0.6105" stop-color="#0F0F0F" stop-opacity="0.7432"/>
<stop offset="0.6758" stop-color="#232323" stop-opacity="0.6187"/>
<stop offset="0.7405" stop-color="#3E3E3E" stop-opacity="0.4952"/>
<stop offset="0.8048" stop-color="#626262" stop-opacity="0.3725"/>
<stop offset="0.8688" stop-color="#8D8D8D" stop-opacity="0.2503"/>
<stop offset="0.9327" stop-color="#C0C0C0" stop-opacity="0.1284"/>
<stop offset="0.9949" stop-color="#FAFAFA" stop-opacity="0.01"/>
<stop offset="1" stop-color="white" stop-opacity="0"/>
</linearGradient>
<linearGradient id="paint13_linear" x1="181.323" y1="22.5661" x2="188.468" y2="22.5661" gradientUnits="userSpaceOnUse">
<stop stop-color="white" stop-opacity="0"/>
<stop offset="0.00738025" stop-color="#F6F6F6" stop-opacity="0.01"/>
<stop offset="0.0476763" stop-color="#C8C8C8" stop-opacity="0.0476763"/>
<stop offset="0.0930898" stop-color="#9D9D9D" stop-opacity="0.0930898"/>
<stop offset="0.1419" stop-color="#777777" stop-opacity="0.1419"/>
<stop offset="0.195" stop-color="#575757" stop-opacity="0.195"/>
<stop offset="0.2537" stop-color="#3B3B3B" stop-opacity="0.2537"/>
<stop offset="0.32" stop-color="#252525" stop-opacity="0.32"/>
<stop offset="0.3974" stop-color="#141414" stop-opacity="0.3974"/>
<stop offset="0.4931" stop-color="#090909" stop-opacity="0.4931"/>
<stop offset="0.6274" stop-color="#020202" stop-opacity="0.6274"/>
<stop offset="1"/>
</linearGradient>
<linearGradient id="paint14_linear" x1="153.378" y1="28.9691" x2="180.812" y2="28.9691" gradientUnits="userSpaceOnUse">
<stop stop-color="white" stop-opacity="0"/>
<stop offset="0.00738025" stop-color="#F6F6F6" stop-opacity="0.01"/>
<stop offset="0.0476763" stop-color="#C8C8C8" stop-opacity="0.0476763"/>
<stop offset="0.0930898" stop-color="#9D9D9D" stop-opacity="0.0930898"/>
<stop offset="0.1419" stop-color="#777777" stop-opacity="0.1419"/>
<stop offset="0.195" stop-color="#575757" stop-opacity="0.195"/>
<stop offset="0.2537" stop-color="#3B3B3B" stop-opacity="0.2537"/>
<stop offset="0.32" stop-color="#252525" stop-opacity="0.32"/>
<stop offset="0.3974" stop-color="#141414" stop-opacity="0.3974"/>
<stop offset="0.4931" stop-color="#090909" stop-opacity="0.4931"/>
<stop offset="0.6274" stop-color="#020202" stop-opacity="0.6274"/>
<stop offset="1"/>
</linearGradient>
<linearGradient id="paint15_linear" x1="164.992" y1="-8.70456" x2="164.992" y2="45.2368" gradientUnits="userSpaceOnUse">
<stop stop-color="white" stop-opacity="0"/>
<stop offset="0.0212727" stop-color="#F4F4F4" stop-opacity="0.0170182"/>
<stop offset="0.1358" stop-color="#BBBBBB" stop-opacity="0.1087"/>
<stop offset="0.2539" stop-color="#898989" stop-opacity="0.2031"/>
<stop offset="0.3728" stop-color="#5F5F5F" stop-opacity="0.2982"/>
<stop offset="0.4928" stop-color="#3D3D3D" stop-opacity="0.3943"/>
<stop offset="0.6143" stop-color="#222222" stop-opacity="0.4915"/>
<stop offset="0.7378" stop-color="#0F0F0F" stop-opacity="0.5903"/>
<stop offset="0.8646" stop-color="#040404" stop-opacity="0.6917"/>
<stop offset="1" stop-opacity="0.8"/>
</linearGradient>
<linearGradient id="paint16_linear" x1="157.687" y1="4.6411" x2="170.076" y2="37.28" gradientUnits="userSpaceOnUse">
<stop stop-color="#666666" stop-opacity="0.4"/>
<stop offset="0.0493865" stop-color="#555555" stop-opacity="0.4198"/>
<stop offset="0.1329" stop-color="#3F3F3F" stop-opacity="0.4532"/>
<stop offset="0.2315" stop-color="#2E2E2E" stop-opacity="0.4926"/>
<stop offset="0.3536" stop-color="#232323" stop-opacity="0.5414"/>
<stop offset="0.5248" stop-color="#1C1C1C" stop-opacity="0.6099"/>
<stop offset="1" stop-color="#1A1A1A" stop-opacity="0.8"/>
</linearGradient>
<linearGradient id="paint17_linear" x1="214.3" y1="28.6293" x2="188.367" y2="28.6293" gradientUnits="userSpaceOnUse">
<stop stop-color="white" stop-opacity="0"/>
<stop offset="0.00738025" stop-color="#F6F6F6" stop-opacity="0.01"/>
<stop offset="0.0476763" stop-color="#C8C8C8" stop-opacity="0.0476763"/>
<stop offset="0.0930898" stop-color="#9D9D9D" stop-opacity="0.0930898"/>
<stop offset="0.1419" stop-color="#777777" stop-opacity="0.1419"/>
<stop offset="0.195" stop-color="#575757" stop-opacity="0.195"/>
<stop offset="0.2537" stop-color="#3B3B3B" stop-opacity="0.2537"/>
<stop offset="0.32" stop-color="#252525" stop-opacity="0.32"/>
<stop offset="0.3974" stop-color="#141414" stop-opacity="0.3974"/>
<stop offset="0.4931" stop-color="#090909" stop-opacity="0.4931"/>
<stop offset="0.6274" stop-color="#020202" stop-opacity="0.6274"/>
<stop offset="1"/>
</linearGradient>
<linearGradient id="paint18_linear" x1="191.147" y1="24.893" x2="211.196" y2="24.893" gradientUnits="userSpaceOnUse">
<stop/>
<stop offset="0.1895" stop-color="#030303" stop-opacity="0.8105"/>
<stop offset="0.3229" stop-color="#0C0C0C" stop-opacity="0.6771"/>
<stop offset="0.4392" stop-color="#1C1C1C" stop-opacity="0.5608"/>
<stop offset="0.5455" stop-color="#323232" stop-opacity="0.4545"/>
<stop offset="0.6453" stop-color="#4E4E4E" stop-opacity="0.3547"/>
<stop offset="0.74" stop-color="#717171" stop-opacity="0.26"/>
<stop offset="0.8309" stop-color="#9B9B9B" stop-opacity="0.1691"/>
<stop offset="0.9163" stop-color="#C9C9C9" stop-opacity="0.0836641"/>
<stop offset="1" stop-color="white" stop-opacity="0"/>
</linearGradient>
<linearGradient id="paint19_linear" x1="211.459" y1="15.5858" x2="206.223" y2="15.5858" gradientUnits="userSpaceOnUse">
<stop stop-color="#1A1A1A" stop-opacity="0.8"/>
<stop offset="0.4752" stop-color="#1C1C1C" stop-opacity="0.6099"/>
<stop offset="0.6464" stop-color="#232323" stop-opacity="0.5414"/>
<stop offset="0.7685" stop-color="#2E2E2E" stop-opacity="0.4926"/>
<stop offset="0.8671" stop-color="#3F3F3F" stop-opacity="0.4532"/>
<stop offset="0.9506" stop-color="#555555" stop-opacity="0.4198"/>
<stop offset="1" stop-color="#666666" stop-opacity="0.4"/>
</linearGradient>
</defs>
</svg>
