<svg id="Capa_1" enable-background="new 0 0 512 512" height="512" viewBox="0 0 512 512" width="512" xmlns="http://www.w3.org/2000/svg"><g><path d="m195.901 188.774c-1.751-.618-3.412-1.209-4.983-1.775v-32.977c4.202 1.23 7.109 3.346 8.522 5.356 3.177 4.519 9.414 5.606 13.932 2.43 4.518-3.177 5.605-9.414 2.429-13.932-4.796-6.821-13.51-12.511-24.883-14.323v-2.281c0-5.522-4.477-10-10-10s-10 4.478-10 10v3.045c-1.586.348-3.198.766-4.834 1.258-12.709 3.82-22.301 16.15-23.326 29.982-1.011 13.649 6.271 25.51 19.48 31.727 1.898.893 4.882 2.13 8.68 3.608v39.422c-5.362-1.563-10.303-4.22-13.498-8.179-3.467-4.296-9.762-4.969-14.062-1.502-4.298 3.469-4.97 9.765-1.502 14.062 7.422 9.196 18.395 14.096 29.062 16.162v1.563c0 5.522 4.477 10 10 10s10-4.478 10-10v-.799c22.513-2.784 32.327-17.364 33.977-30.378 2.303-18.17-9.62-35.634-28.994-42.469zm-25.147-9.585c-7.149-3.365-8.325-8.467-8.052-12.153.386-5.212 3.846-10.175 8.215-11.978v24.207c-.056-.026-.11-.052-.163-.076zm34.299 49.539c-.824 6.501-5.906 10.986-14.135 12.645v-33.095c10.901 4.551 14.999 13.634 14.135 20.45z"/><path d="m510.765 347.058-16.19-29.466-.693-33.617c-.071-3.429-1.894-6.581-4.828-8.354l-28.777-17.38-17.38-28.777c-1.772-2.935-4.925-4.757-8.354-4.828l-33.618-.694-29.466-16.19c-2.137-1.174-4.598-1.511-6.921-1.011.177-3.296.267-6.599.267-9.895 0-100.397-81.825-182.076-182.402-182.076s-182.403 81.678-182.403 182.076 81.825 182.076 182.402 182.076c16.547 0 32.923-2.21 48.725-6.572l7.585 13.804.694 33.617c.071 3.429 1.893 6.581 4.828 8.354l28.777 17.38 17.38 28.777c1.772 2.935 4.925 4.757 8.354 4.828l33.617.694 29.466 16.19c1.499.823 3.157 1.235 4.815 1.235s3.316-.412 4.815-1.235l29.466-16.19 33.617-.693c3.429-.071 6.581-1.894 8.354-4.828l17.379-28.778 28.777-17.38c2.935-1.772 4.757-4.925 4.828-8.354l.694-33.617 16.19-29.466c1.649-2.998 1.649-6.631.002-9.63zm-490.765-150.212c0-89.369 72.853-162.076 162.402-162.076 89.548 0 162.402 72.707 162.402 162.076 0 7.025-.454 14.083-1.35 21.002l-11.093 6.095-23.529.485c1.979-9.031 2.992-18.285 2.992-27.582 0-71.238-58.059-129.195-129.422-129.195s-129.421 57.957-129.421 129.195c0 71.239 58.058 129.196 129.421 129.196 19.699 0 38.905-4.43 56.402-12.921l-.092 4.471-16.19 29.466c-1.209 2.2-1.531 4.742-.966 7.124-12.747 3.147-25.885 4.74-39.154 4.74-89.549 0-162.402-72.707-162.402-162.076zm224.233 78.775c-2.935 1.772-4.757 4.925-4.828 8.354l-.126 6.124c-17.123 10.444-36.692 15.943-56.877 15.943-60.335 0-109.421-48.985-109.421-109.196s49.086-109.195 109.421-109.195c60.336 0 109.422 48.984 109.422 109.195 0 18.45-4.719 36.695-13.645 52.764-.094.17-.183.342-.266.515l-4.902 8.117zm231.629 103.056c-.776 1.414-1.2 2.995-1.233 4.609l-.631 30.566-26.177 15.81c-1.388.838-2.552 2.002-3.39 3.39l-15.81 26.177-30.566.631c-1.613.033-3.195.457-4.609 1.233l-26.804 14.728-26.804-14.728c-1.414-.776-2.995-1.2-4.609-1.233l-30.566-.631-15.81-26.177c-.838-1.388-2.002-2.552-3.39-3.39l-26.177-15.81-.631-30.566c-.033-1.613-.456-3.195-1.233-4.609l-14.727-26.804 14.727-26.804c.777-1.414 1.2-2.996 1.233-4.609l.631-30.566 26.177-15.81c1.388-.838 2.552-2.001 3.39-3.39l15.811-26.177 30.565-.63c1.613-.033 3.195-.457 4.609-1.234l26.804-14.728 26.804 14.728c1.414.776 2.995 1.2 4.609 1.233l30.567.631 15.81 26.177c.838 1.388 2.002 2.552 3.39 3.39l26.176 15.81.631 30.566c.033 1.613.457 3.195 1.233 4.609l14.728 26.804z"/><path d="m396.928 280.374c-5.096-2.136-10.953.259-13.091 5.351l-51.175 121.938c-2.138 5.093.259 10.954 5.351 13.091 1.265.53 2.576.782 3.866.782 3.907 0 7.618-2.305 9.225-6.133l51.175-121.938c2.137-5.093-.259-10.954-5.351-13.091z"/><path d="m364.697 310.188c0-20.003-14.629-36.276-32.611-36.276s-32.612 16.273-32.612 36.276c0 20.002 14.63 36.275 32.612 36.275s32.611-16.273 32.611-36.275zm-45.223 0c0-8.822 5.775-16.276 12.612-16.276 6.836 0 12.611 7.454 12.611 16.276s-5.775 16.275-12.611 16.275c-6.837 0-12.612-7.453-12.612-16.275z"/><path d="m401.2 357.283c-17.982 0-32.612 16.273-32.612 36.275 0 20.003 14.63 36.276 32.612 36.276s32.611-16.273 32.611-36.276c.001-20.001-14.628-36.275-32.611-36.275zm0 52.552c-6.837 0-12.612-7.454-12.612-16.276s5.775-16.275 12.612-16.275c6.836 0 12.611 7.453 12.611 16.275s-5.775 16.276-12.611 16.276z"/></g></svg>