<svg width="40" height="40" viewBox="0 0 40 40" fill="none" xmlns="http://www.w3.org/2000/svg">
<path d="M13.4961 10.3698C13.1699 10.3698 12.6346 10.4952 12.1746 10.9886C11.723 11.4737 10.4434 12.6612 10.4434 15.0781C10.4434 17.495 12.2165 19.8283 12.4674 20.1544C12.7099 20.4806 15.8881 25.5987 20.923 27.5723C23.8419 28.7097 25.063 28.969 25.7572 28.969C26.259 28.969 26.4848 28.8352 26.8612 28.7933C27.7645 28.7097 29.7885 27.6058 30.2066 26.4601C30.6165 25.3143 30.6165 24.3275 30.491 24.1268C30.3655 23.9261 30.0394 23.8007 29.5459 23.5498C29.0525 23.3072 26.6103 22.1197 26.167 21.9524C25.9663 21.8855 25.799 21.827 25.6317 21.827C25.4226 21.827 25.2303 21.9274 25.0463 22.2033C24.7201 22.6967 23.7666 23.8007 23.4823 24.1268C23.3234 24.3108 23.1561 24.4111 22.947 24.4111C22.7965 24.4111 22.6208 24.361 22.4117 24.2523C21.9099 24.0097 20.3208 23.4912 18.4306 21.8186C16.9586 20.514 15.9634 18.9083 15.679 18.4149C15.3863 17.9299 15.6455 17.6622 15.8965 17.4197C16.1223 17.1939 16.3899 16.8427 16.6408 16.5583C16.8917 16.274 16.967 16.0649 17.1343 15.7388C17.2932 15.4126 17.2179 15.1199 17.0925 14.8774C16.967 14.6349 15.9801 12.218 15.5619 11.2311C15.2525 10.4952 14.943 10.4032 14.6921 10.4032C14.6085 10.4032 14.5248 10.4116 14.4495 10.4116C14.1652 10.4199 13.8306 10.3698 13.4961 10.3698Z" fill="#D8D8D8"/>
<path d="M20.3287 0C9.48108 0 0.657446 8.76437 0.657446 19.5359C0.657446 22.7807 1.46872 25.967 3.00763 28.802L0.105446 37.3489C-0.1371 38.0682 0.0469003 38.8543 0.57381 39.3979C0.958537 39.7909 1.47708 40 2.00399 40C2.20472 40 2.41381 39.9666 2.61454 39.908L11.6054 37.0562C14.2985 38.3776 17.3011 39.0801 20.3287 39.0801C31.1764 39.0801 40 30.3157 40 19.5526C40 8.76437 31.1764 0 20.3287 0ZM20.3204 35.0659C17.6691 35.0659 15.0513 34.3968 12.7513 33.134C12.4585 32.9751 12.124 32.8915 11.7894 32.8915C11.5887 32.8915 11.3796 32.9249 11.1789 32.9835L5.17381 34.8902L7.08908 29.2369C7.28145 28.6766 7.21454 28.0577 6.90508 27.5476C5.44145 25.139 4.66363 22.3709 4.66363 19.5442C4.66363 10.9806 11.6891 4.01422 20.3287 4.01422C28.9684 4.01422 35.9938 10.9806 35.9938 19.5442C35.9855 28.0995 28.96 35.0659 20.3204 35.0659Z" fill="#D8D8D8"/>
</svg>
