<svg width="40" height="40" viewBox="0 0 40 40" fill="none" xmlns="http://www.w3.org/2000/svg">
<path d="M40 34.1466C40 37.3794 37.3927 40 34.1764 40H5.8235C2.60724 40 0 37.3794 0 34.1466V5.85337C0 2.62061 2.60734 0 5.8235 0H34.1764C37.3927 0 40 2.62072 40 5.85337V34.1466Z" fill="#D8D8D8"/>
<path d="M40 34.1466C40 37.3794 37.3927 40 34.1764 40H5.8235C2.60724 40 0 37.3794 0 34.1466V5.85337C0 2.62061 2.60734 0 5.8235 0H34.1764C37.3927 0 40 2.62072 40 5.85337V34.1466Z" fill="#D8D8D8"/>
<path d="M33.8515 26.4497C33.8176 26.3765 33.786 26.3158 33.7566 26.2671C33.2708 25.3909 32.3426 24.3153 30.9722 23.0401L30.9431 23.0109L30.9289 22.9966L30.9141 22.9819H30.8995C30.2774 22.3881 29.8836 21.9889 29.7186 21.7845C29.4169 21.3951 29.3493 21.0009 29.5143 20.6016C29.6307 20.2999 30.0685 19.6627 30.8264 18.6891C31.2249 18.1731 31.5405 17.7596 31.7739 17.4481C33.4554 15.2091 34.1844 13.7784 33.9606 13.1554L33.8739 13.0098C33.8154 12.9221 33.6647 12.842 33.422 12.7688C33.1789 12.6958 32.8679 12.6838 32.4887 12.7324L28.2904 12.7615C28.2224 12.7373 28.1251 12.7396 27.9988 12.7688C27.8723 12.7981 27.8091 12.8128 27.8091 12.8128L27.736 12.8493L27.6781 12.8933C27.6293 12.9223 27.5759 12.9734 27.5176 13.0464C27.4595 13.1192 27.4109 13.2046 27.3721 13.3019C26.915 14.4797 26.3954 15.5748 25.8121 16.5871C25.4524 17.1907 25.1221 17.7138 24.8205 18.1567C24.5193 18.5995 24.2667 18.9257 24.0627 19.1348C23.8584 19.3442 23.6741 19.5118 23.5085 19.6385C23.3433 19.7652 23.2172 19.8188 23.1296 19.7992C23.0421 19.7796 22.9598 19.7602 22.8817 19.7408C22.7456 19.6531 22.6364 19.5339 22.5539 19.383C22.4709 19.2322 22.4153 19.0423 22.3861 18.8135C22.357 18.5846 22.3399 18.3877 22.335 18.2222C22.3305 18.0569 22.3325 17.823 22.3424 17.5212C22.3525 17.2194 22.357 17.0151 22.357 16.908C22.357 16.5381 22.3642 16.1366 22.3787 15.7034C22.3935 15.2703 22.4054 14.9271 22.4153 14.6742C22.4252 14.4211 22.4297 14.1534 22.4297 13.8711C22.4297 13.5888 22.4126 13.3674 22.3787 13.2067C22.3452 13.0462 22.2938 12.8904 22.2261 12.7394C22.1579 12.5886 22.0581 12.4719 21.9273 12.389C21.7961 12.3063 21.6329 12.2406 21.4389 12.1918C20.9237 12.0751 20.2677 12.0119 19.4706 12.0021C17.663 11.9826 16.5015 12.0996 15.9863 12.3526C15.7822 12.4596 15.5976 12.6057 15.4324 12.7905C15.2574 13.0047 15.233 13.1216 15.3594 13.1409C15.9426 13.2284 16.3555 13.4377 16.5985 13.7686L16.6861 13.944C16.7542 14.0705 16.8222 14.2945 16.8902 14.6157C16.9582 14.9368 17.0021 15.2921 17.0214 15.6813C17.0699 16.392 17.0699 17.0003 17.0214 17.5064C16.9727 18.0127 16.9267 18.4069 16.8829 18.6891C16.839 18.9714 16.7735 19.2002 16.6861 19.3754C16.5985 19.5506 16.5402 19.6576 16.511 19.6965C16.4818 19.7354 16.4575 19.7599 16.4383 19.7695C16.3119 19.818 16.1805 19.8427 16.0446 19.8427C15.9084 19.8427 15.7433 19.7744 15.5489 19.6381C15.3546 19.5018 15.153 19.3145 14.944 19.076C14.735 18.8374 14.4993 18.504 14.2368 18.0758C13.9745 17.6475 13.7023 17.1414 13.4205 16.5574L13.1873 16.1338C13.0415 15.8613 12.8423 15.4646 12.5896 14.9439C12.3368 14.4231 12.1133 13.9192 11.919 13.4325C11.8413 13.2281 11.7246 13.0725 11.5692 12.9654L11.4962 12.9215C11.4477 12.8826 11.3698 12.8413 11.263 12.7974C11.156 12.7534 11.0444 12.7219 10.9277 12.7025L6.93319 12.7316C6.52502 12.7316 6.24806 12.8242 6.10222 13.0092L6.04386 13.0967C6.01471 13.1454 6 13.2233 6 13.3304C6 13.4375 6.02916 13.5689 6.08752 13.7245C6.67064 15.0972 7.30477 16.4209 7.98991 17.6961C8.67506 18.9712 9.27044 19.9984 9.77568 20.7766C10.281 21.5554 10.7962 22.2905 11.321 22.9814C11.8459 23.6725 12.1933 24.1155 12.3633 24.31C12.5335 24.505 12.6671 24.6507 12.7643 24.7481L13.1289 25.0984C13.3621 25.3321 13.7046 25.6119 14.1566 25.9379C14.6086 26.2642 15.1091 26.5853 15.6582 26.9019C16.2074 27.2181 16.8463 27.476 17.5753 27.6755C18.3042 27.8752 19.0137 27.9554 19.7038 27.9167H21.3804C21.7203 27.8872 21.9778 27.7802 22.153 27.5954L22.211 27.5222C22.25 27.464 22.2866 27.3739 22.3202 27.2523C22.3543 27.1307 22.3713 26.9967 22.3713 26.8509C22.3614 26.4323 22.3931 26.0551 22.4659 25.7194C22.5386 25.3837 22.6213 25.1306 22.714 24.9602C22.8066 24.7899 22.9111 24.6462 23.0273 24.5297C23.1437 24.4129 23.2269 24.3422 23.2756 24.3179C23.324 24.2934 23.3626 24.2768 23.3917 24.2668C23.6251 24.189 23.8996 24.2643 24.2156 24.4933C24.5316 24.722 24.8279 25.0045 25.1051 25.3402C25.3822 25.6762 25.715 26.0532 26.1036 26.4716C26.4927 26.8903 26.8327 27.2014 27.124 27.4061L27.4155 27.5814C27.6102 27.6982 27.8629 27.8053 28.174 27.9026C28.4845 28 28.7566 28.0243 28.9901 27.9757L32.7221 27.9174C33.0912 27.9174 33.3783 27.8561 33.5821 27.7347C33.7864 27.613 33.9075 27.4789 33.9466 27.3332C33.9856 27.1873 33.9878 27.0217 33.954 26.8364C33.9194 26.6518 33.8855 26.5226 33.8515 26.4497Z" fill="white"/>
</svg>
