<svg width="40" height="33" viewBox="0 0 40 33" fill="none" xmlns="http://www.w3.org/2000/svg">
<path d="M2.33634 3.54791C0.881632 2.3577 1.72325 0 3.60282 0H36.3972C38.2768 0 39.1184 2.3577 37.6637 3.54791L21.2665 16.9638C20.5297 17.5666 19.4703 17.5666 18.7335 16.9638L2.33634 3.54791ZM3.41421 8.48864C2.15428 7.4448 0 8.18409 0 9.66029V31.343C0 32.2581 0.895431 33 2 33H38C39.1046 33 40 32.2581 40 31.343V9.66029C40 8.18409 37.8457 7.44481 36.5858 8.48864L21.4142 21.058C20.6332 21.7051 19.3668 21.7051 18.5858 21.058L3.41421 8.48864Z" fill="#C0384E"/>
<path d="M2.33634 3.54791C0.881632 2.3577 1.72325 0 3.60282 0H36.3972C38.2768 0 39.1184 2.3577 37.6637 3.54791L21.2665 16.9638C20.5297 17.5666 19.4703 17.5666 18.7335 16.9638L2.33634 3.54791ZM3.41421 8.48864C2.15428 7.4448 0 8.18409 0 9.66029V31.343C0 32.2581 0.895431 33 2 33H38C39.1046 33 40 32.2581 40 31.343V9.66029C40 8.18409 37.8457 7.44481 36.5858 8.48864L21.4142 21.058C20.6332 21.7051 19.3668 21.7051 18.5858 21.058L3.41421 8.48864Z" stroke="#C0384E"/>
</svg>
