<svg width="40" height="40" viewBox="0 0 40 40" fill="none" xmlns="http://www.w3.org/2000/svg">
<path d="M39.9613 27.4211C39.8481 26.1676 39.4561 25.0185 38.9072 23.6692C38.8462 23.5212 38.8288 23.3993 38.8549 23.2514C39.1773 21.3972 39.247 19.6823 39.064 18.0196C38.8811 16.3308 38.4891 14.6942 37.9054 13.1534C37.2171 11.3428 36.224 9.61915 34.9608 8.02612C33.6279 6.35473 32.0511 4.94451 30.2739 3.82155C27.9217 2.34168 25.3953 1.40152 22.7644 1.03591C21.6928 0.887922 20.8042 0.818281 19.9592 0.818281C19.1751 0.818281 18.452 0.879216 17.7551 1.00979C17.4763 1.06202 17.2237 1.08814 16.9623 1.08814C16.4222 1.08814 15.8995 0.974973 15.3594 0.74864C14.2007 0.252448 12.9723 0 11.7091 0C11.4478 0 11.1864 0.00870508 10.9338 0.0348204C8.92138 0.200218 7.12676 0.78346 5.5935 1.76714C3.17163 3.31665 1.50769 5.40588 0.636512 7.97388C0.0876721 9.57563 -0.103986 11.1077 0.052825 12.6485C0.183501 13.963 0.619089 15.1556 1.0721 16.2524C1.14179 16.4265 1.16793 16.5745 1.14179 16.7573L1.09824 17.0707C0.950135 18.037 0.802035 19.0381 0.836882 20.0479C0.871729 21.7367 1.05468 23.2339 1.41186 24.6355C1.8126 26.2285 2.39629 27.7345 3.15421 29.1099C4.34772 31.3036 5.91583 33.2013 7.79757 34.7595C9.6009 36.2481 11.5872 37.3711 13.7041 38.1023C15.7862 38.8161 17.8422 39.1817 19.8285 39.1817C20.6822 39.1817 21.5447 39.1121 22.381 38.9815C22.625 38.9467 22.8602 38.9206 23.0867 38.9206C23.592 38.9206 24.0711 39.025 24.559 39.2252C25.6654 39.6953 26.7892 39.9565 27.913 39.9913C28.035 39.9913 28.1656 40 28.2876 40C30.5352 40 32.5999 39.4168 34.412 38.259C37.2955 36.4222 39.1076 33.8368 39.7871 30.5811C39.9875 29.4842 40.0485 28.4309 39.9613 27.4211ZM4.44355 19.4298C4.46968 18.5593 4.60907 17.6888 4.74846 16.8444C4.83557 16.3395 4.76588 15.9042 4.54809 15.5038C3.91213 14.3199 3.59851 13.0838 3.62464 11.8477C3.68562 8.57454 5.12306 6.1284 7.91953 4.5876C9.03464 3.96953 10.2804 3.64744 11.6307 3.63003H11.744C13.0769 3.63003 14.314 3.93471 15.4203 4.52666C15.7601 4.70947 16.0999 4.79652 16.4483 4.79652C16.5703 4.79652 16.701 4.78781 16.8317 4.7617C18.0426 4.54407 18.9747 4.44831 19.8546 4.44831H20.0202C22.1981 4.48313 24.2715 4.91839 26.1968 5.73667C27.4338 6.26768 28.6099 6.9728 29.7076 7.84331C30.7182 8.64418 31.6503 9.60174 32.4605 10.6812C33.837 12.518 34.7691 14.5898 35.2309 16.8444C35.649 18.9162 35.6752 20.8923 35.3006 22.7378C35.1176 23.6431 35.3877 24.383 35.7013 25.0359C36.0672 25.7845 36.2763 26.6464 36.3547 27.6823C36.4418 28.8662 36.2763 30.0239 35.8581 31.1121C35.1525 32.975 33.9328 34.3939 32.2166 35.3341C31.0492 35.9782 29.7947 36.3177 28.488 36.3526C28.4096 36.3526 28.3312 36.3526 28.2528 36.3526C26.9547 36.3526 25.7525 36.074 24.6809 35.5082C24.2802 35.2992 23.8882 35.1948 23.4787 35.1948C23.3132 35.1948 23.1477 35.2122 22.9821 35.247C22.0587 35.4298 21.1178 35.5256 20.177 35.5256C20.0986 35.5256 20.0202 35.5256 19.9417 35.5256C18.1994 35.4995 16.6051 35.2383 15.0719 34.7247C13.3208 34.1415 11.7179 33.2797 10.3066 32.148C9.53121 31.5299 8.80813 30.8248 8.10248 29.9891C7.2313 28.9532 6.55179 27.9347 6.0378 26.864C5.03594 24.7835 4.53066 22.7726 4.46968 20.7008C4.46968 20.5876 4.46097 20.4744 4.45226 20.37C4.44355 20.2655 4.43483 20.161 4.43483 20.0566C4.42612 19.9086 4.43483 19.7606 4.43483 19.6126L4.44355 19.4298Z" fill="#D8D8D8"/>
<path d="M20.1598 30.4505C18.252 30.4505 16.3877 30.1894 14.6279 29.4059C13.3647 28.8401 12.2931 28.0392 11.6136 26.8031C11.3523 26.3243 11.1955 25.802 11.178 25.2623C11.1519 24.4179 11.5265 23.7824 12.2844 23.4168C13.0336 23.0512 13.7654 23.1382 14.4624 23.5822C14.9676 23.9043 15.3074 24.4005 15.6646 24.8618C16.9539 26.5855 18.7224 27.0642 20.761 26.864C21.6496 26.777 22.4772 26.5332 23.148 25.9152C24.4983 24.6529 24.1237 22.8074 22.3639 22.2242C21.4666 21.9282 20.5257 21.7628 19.6023 21.5191C17.9645 21.0838 16.2831 20.814 14.7063 20.1698C13.2776 19.5865 12.0841 18.6986 11.5788 17.1752C10.9167 15.1556 11.0735 13.197 12.4064 11.4647C13.2601 10.3504 14.4362 9.67143 15.7604 9.24487C17.1543 8.80091 18.583 8.58329 20.0466 8.64422C22.3378 8.73998 24.4722 9.34063 26.3191 10.7422C27.0857 11.3254 27.7042 12.0392 27.8959 13.0403C28.1398 14.3025 27.347 15.2601 26.0316 15.4081C25.1952 15.5039 24.5593 15.1469 24.0192 14.5463C23.6184 14.0936 23.2002 13.641 22.7211 13.2666C22.0329 12.7269 21.2227 12.4832 20.3864 12.3874C19.5065 12.2917 18.6266 12.2917 17.7641 12.5441C17.1282 12.7269 16.6055 13.0925 16.2483 13.641C15.6297 14.5898 15.9521 15.7215 16.9626 16.2264C17.616 16.5572 18.313 16.7487 19.0186 16.9054C20.6477 17.2797 22.2855 17.6279 23.9059 18.0457C25.3433 18.4114 26.6327 19.0729 27.6171 20.2307C28.105 20.8053 28.436 21.4756 28.6102 22.2068C28.9152 23.4777 28.8977 24.7487 28.4447 25.9935C27.8262 27.7171 26.6065 28.8488 24.96 29.5539C23.4355 30.2242 21.8151 30.4505 20.1598 30.4505Z" fill="#D8D8D8"/>
</svg>
