<svg width="37" height="40" viewBox="0 0 37 40" fill="none" xmlns="http://www.w3.org/2000/svg">
<path d="M36.1141 10.3483C35.2107 5.98231 32.6214 3.02113 28.4268 1.54453C25.3374 0.45903 22.1431 0.171692 19.7151 0.0439857C17.6743 -0.0597754 15.698 0.0200408 13.8508 0.283434C11.0114 0.690497 8.91411 1.2971 7.05076 2.2549C3.69512 3.97095 1.63011 6.53305 0.904131 9.87735C0.0894207 13.6367 -0.168705 17.0528 0.105554 20.3333C0.307215 22.6879 0.72667 24.5955 1.43652 26.3195C2.69488 29.3844 4.76796 31.3958 7.60734 32.3057C7.78481 32.3616 7.9542 32.4254 8.13166 32.4893C8.21233 32.5212 8.30106 32.5531 8.38172 32.5851C8.37366 33.2715 8.37366 33.9579 8.37366 34.6443V35.4824C8.38172 35.7298 8.38172 36.0571 8.38979 36.4003C8.41399 38.9065 8.45432 39.1939 8.80118 39.5051C9.09964 39.7685 9.49489 40 9.97888 40C10.4629 40 11.0356 39.7765 11.689 39.138L12.7457 38.1163C14.125 36.7914 15.5528 35.4185 16.8838 33.9898C16.9241 33.9499 16.9483 33.934 16.9402 33.9419C19.1182 33.934 21.2638 33.8142 23.0788 33.7025C25.0228 33.5828 26.6119 33.3274 28.0638 32.9123C31.6211 31.8987 34.0572 29.7197 35.3156 26.4552C36.1706 24.2363 36.6385 21.8179 36.7595 19.0562C36.8966 15.9673 36.6869 13.1179 36.1141 10.3483ZM9.80142 29.5441L9.60782 29.4643C9.2771 29.3286 8.94637 29.1929 8.60758 29.0891C6.78457 28.5224 5.48587 27.2693 4.63889 25.2659C4.06618 23.925 3.71125 22.3766 3.50153 20.3971C3.13854 16.9092 3.64672 13.485 4.13071 10.891C4.62276 8.26506 6.13925 6.3814 8.77698 5.12828C10.6242 4.2503 12.7779 3.72352 15.5528 3.4681C16.4401 3.38829 17.3355 3.34838 18.2389 3.34838C20.675 3.34838 23.1756 3.63572 25.7004 4.21039C27.596 4.6414 29.1044 5.35177 30.3224 6.3814C31.5082 7.38708 32.2665 8.75992 32.7182 10.7154C33.1296 12.4953 33.3554 14.2992 33.4038 16.0791C33.4764 18.7449 33.307 20.9 32.8876 22.8794C32.694 23.7973 32.3713 24.7391 31.8873 25.8645C31.1936 27.4609 29.9917 28.5863 28.2332 29.2966C26.5957 29.9591 24.8695 30.1746 23.5466 30.2943C22.0301 30.43 20.4814 30.4779 18.981 30.5258C18.1663 30.5498 17.3516 30.5817 16.5288 30.6216C15.7141 30.6615 15.0123 31.0127 14.3912 31.6991C13.5442 32.625 12.6489 33.495 11.7051 34.4129C11.7051 33.7264 11.7051 33.064 11.7212 32.4015C11.7616 31.0606 11.092 30.0629 9.80142 29.5441Z" fill="#D8D8D8"/>
<path d="M22.909 26.5587C22.5461 26.5746 22.2073 26.4709 21.8765 26.3352C16.9641 24.2679 13.1083 21.0354 10.5271 16.3661C9.97854 15.3684 9.55102 14.3069 9.18803 13.2373C8.86537 12.2795 9.1477 11.4095 9.82528 10.6752C10.3254 10.1325 10.9788 9.81321 11.6967 9.66954C12.1242 9.58174 12.5275 9.66156 12.8583 9.95688C14.0118 10.9626 14.891 12.1758 15.5041 13.5646C15.7299 14.0754 15.5444 14.5304 15.1411 14.8975C14.9313 15.0891 14.6974 15.2487 14.4877 15.4323C13.9392 15.9032 13.794 16.4779 14.0602 17.1403C14.9555 19.3592 16.593 20.8279 18.8194 21.6739C19.2227 21.8256 19.6179 21.7378 19.9406 21.4504C20.0616 21.3387 20.1907 21.2269 20.2713 21.0912C20.9731 19.9898 22.054 19.9499 23.0381 20.5804C23.9093 21.1391 24.7401 21.7617 25.5548 22.4082C26.2082 22.927 26.3373 23.5336 25.9985 24.2919C25.4984 25.4013 24.6272 26.1197 23.4656 26.4948C23.4011 26.5188 23.3285 26.5347 23.2559 26.5427C23.143 26.5507 23.03 26.5507 22.909 26.5587Z" fill="#D8D8D8"/>
<path d="M19.0617 8.22536C23.0788 8.22536 26.3295 11.0748 26.8216 14.9299C26.9264 15.768 26.8861 16.5901 26.7248 17.4042C26.6199 17.923 26.2489 18.1944 25.7971 18.1066C25.3777 18.0268 25.1599 17.6277 25.2567 17.1169C25.9101 13.589 23.7563 10.4602 20.2152 9.78178C19.4247 9.63013 18.6422 9.686 17.8517 9.82169C17.3354 9.90949 16.9644 9.686 16.8837 9.24701C16.8031 8.82399 17.0612 8.48078 17.5532 8.36903C18.0856 8.26527 18.6261 8.20142 19.0617 8.22536Z" fill="#D8D8D8"/>
<path d="M24.7479 15.8797C24.756 16.2069 24.7479 16.5341 24.6753 16.8534C24.5866 17.2365 24.2317 17.4919 23.8687 17.452C23.4734 17.4041 23.2234 17.1168 23.2072 16.7097C23.1992 16.2787 23.2879 15.8557 23.2314 15.4167C22.9733 13.3814 21.2955 11.8569 19.2143 11.801C18.9481 11.7931 18.6739 11.8489 18.3996 11.8569C17.9076 11.8729 17.601 11.6175 17.5526 11.1944C17.5123 10.8113 17.7946 10.4841 18.2383 10.4043C21.1583 9.85353 24.2075 11.9846 24.6673 14.8979C24.7318 15.2252 24.7641 15.5524 24.7479 15.8797Z" fill="#D8D8D8"/>
<path d="M19.2226 12.4475C21.0537 12.4714 22.6751 14.1396 22.6267 15.9594C22.6106 16.4064 22.3363 16.7097 21.9168 16.7256C21.4974 16.7416 21.207 16.4622 21.1586 16.0153C21.0053 14.7302 20.3762 14.0757 19.1339 13.9161C18.5531 13.8442 18.2789 13.5729 18.3111 13.1179C18.3353 12.671 18.658 12.4395 19.2226 12.4475Z" fill="#D8D8D8"/>
</svg>
