<svg width="40" height="40" viewBox="0 0 40 40" fill="none" xmlns="http://www.w3.org/2000/svg">
<path d="M40 34.1466C40 37.3794 37.3927 40 34.1764 40H5.82351C2.60724 40 0 37.3794 0 34.1466V5.85337C0 2.62061 2.60734 0 5.82351 0H34.1764C37.3927 0 40 2.62072 40 5.85337V34.1466Z" fill="#D8D8D8"/>
<path d="M40 34.1466C40 37.3794 37.3927 40 34.1764 40H5.82351C2.60724 40 0 37.3794 0 34.1466V5.85337C0 2.62061 2.60734 0 5.82351 0H34.1764C37.3927 0 40 2.62072 40 5.85337V34.1466Z" fill="#D8D8D8"/>
<path d="M27.6087 10.0062L23.7184 10C19.3478 10 16.5233 12.8979 16.5233 17.383V20.7871H12.6117C12.2737 20.7871 12 21.0611 12 21.3991V26.3313C12 26.6693 12.274 26.943 12.6117 26.943H16.5233V39.3884C16.5233 39.7264 16.797 40 17.135 40H22.2384C22.5764 40 22.8502 39.726 22.8502 39.3884V26.943H27.4237C27.7617 26.943 28.0354 26.6693 28.0354 26.3313L28.0373 21.3991C28.0373 21.2368 27.9727 21.0814 27.8581 20.9666C27.7436 20.8517 27.5875 20.7871 27.4252 20.7871H22.8502V17.9014C22.8502 16.5145 23.1807 15.8104 24.9874 15.8104L27.6081 15.8094C27.9458 15.8094 28.2195 15.5354 28.2195 15.1977V10.618C28.2195 10.2806 27.9461 10.0069 27.6087 10.0062Z" fill="white"/>
</svg>
