<svg width="22" height="20" viewBox="0 0 22 20" fill="none" xmlns="http://www.w3.org/2000/svg">
<path d="M20.0287 9.40894L20.0286 9.40883L20.0202 9.41793L11 19.26L1.97977 9.41793L1.9799 9.41782L1.97085 9.40844C1.06267 8.46794 0.5 7.16263 0.5 5.71468C0.5 4.26711 1.06242 2.9642 1.97131 2.02044L1.97179 2.01994C2.87739 1.07699 4.12377 0.5 5.5 0.500003L5.49997 0.5L5.4994 0.499998L5.49971 0.500001C5.5 0.500003 5.50048 0.500008 5.50116 0.500018L5.51612 0.50037C5.53108 0.50083 5.55591 0.501854 5.58995 0.504126C5.65804 0.508672 5.76287 0.518205 5.89923 0.538176C6.17201 0.578127 6.57033 0.659757 7.05291 0.826467C8.01598 1.15916 9.32127 1.83284 10.6398 3.20269L11 3.57696L11.3602 3.20269C12.6787 1.83284 13.984 1.15916 14.9471 0.826467C15.4297 0.659757 15.828 0.578127 16.1008 0.538176C16.2371 0.518205 16.342 0.508672 16.41 0.504126C16.4441 0.501854 16.4689 0.50083 16.4839 0.50037L16.4988 0.500018C16.4996 0.500008 16.5001 0.500003 16.5004 0.5C17.8759 0.5001 19.1225 1.07945 20.0287 2.02043L20.0287 2.02044C20.9375 2.96411 21.5 4.26976 21.5 5.71468C21.5 7.15941 20.9349 8.4679 20.0287 9.40894Z" stroke="#C4C4C4"/>
</svg>
