<svg width="115" height="100" viewBox="0 0 115 100" fill="none" xmlns="http://www.w3.org/2000/svg">
<path d="M57.5 40.3846C47.9765 40.3846 40.25 48.137 40.25 57.6923C40.25 67.2476 47.9765 75 57.5 75C67.0234 75 74.75 67.2476 74.75 57.6923C74.75 48.137 67.0234 40.3846 57.5 40.3846ZM99.6667 15.3846H86.25L83.1953 7.21154C81.6979 3.2452 77.026 0 72.8333 0H42.1667C37.974 0 33.3021 3.2452 31.8047 7.21154L28.75 15.3846H15.3333C6.88801 15.3846 0 22.2957 0 30.7692V84.6154C0 93.089 6.88801 100 15.3333 100H99.6667C108.112 100 115 93.089 115 84.6154V30.7692C115 22.2957 108.112 15.3846 99.6667 15.3846ZM57.5 84.6154C42.7057 84.6154 30.6667 72.5361 30.6667 57.6923C30.6667 42.8486 42.7057 30.7692 57.5 30.7692C72.2943 30.7692 84.3333 42.8486 84.3333 57.6923C84.3333 72.5361 72.2943 84.6154 57.5 84.6154Z" fill="#C9C9C9"/>
</svg>
