<svg width="57" height="43" viewBox="0 0 57 43" fill="none" xmlns="http://www.w3.org/2000/svg">
<path d="M11.0588 28.5232L10.6161 28.3452L10.1991 28.5774L5.11041 31.4121L5.59706 32.2857L5.11041 31.4121C4.81699 31.5756 4.50139 31.5141 4.28645 31.3332L6.63834 30.0231L10.2811 27.9938C10.4799 27.8831 10.7176 27.8724 10.9252 27.9599C13.4373 29.0192 16.3092 29.6208 19.3613 29.6208C29.303 29.6208 37.2527 23.2657 37.2527 15.5454C37.2527 7.82496 29.303 1.46994 19.3613 1.46994C9.41969 1.46994 1.46994 7.82496 1.46994 15.5454C1.46994 19.1764 3.21996 22.4965 6.11341 25.0033C6.34509 25.2041 6.43291 25.5282 6.3249 25.8183L5.21454 28.8005L4.27517 31.3235C4.06383 31.1384 3.95533 30.8357 4.07252 30.521L5.70918 26.1252L5.94382 25.495L5.44867 25.04C2.683 22.4985 1 19.1831 1 15.5454C1 7.4673 9.27055 1 19.3613 1C29.4521 1 37.7226 7.4673 37.7226 15.5454C37.7226 23.6234 29.4521 30.0907 19.3613 30.0907C16.3749 30.0907 13.5534 29.5262 11.0588 28.5232Z" fill="white" stroke="#C0384E" stroke-width="2"/>
<path d="M37.2006 39.5867C27.1897 39.5867 19.0742 33.1797 19.0742 25.2763C19.0742 17.3729 27.1897 10.9659 37.2006 10.9659C47.2115 10.9659 55.3269 17.3729 55.3269 25.2763C55.3269 28.9873 53.5377 32.3684 50.6031 34.9112C50.4444 35.0487 50.3848 35.2698 50.458 35.4666L52.2702 40.3338C52.4304 40.7642 51.9681 41.1612 51.5669 40.9377L46.1672 37.9298C46.0325 37.8548 45.8707 37.8472 45.7287 37.9071C43.1869 38.979 40.2836 39.5867 37.2006 39.5867Z" fill="#C0384E" stroke="#C0384E" stroke-width="2"/>
</svg>
