<svg width="98" height="98" viewBox="0 0 98 98" fill="none" xmlns="http://www.w3.org/2000/svg">
<rect width="98" height="98" rx="5" fill="#F2F2F2"/>
<path d="M49.0022 43.2735C45.3813 43.2735 42.4437 46.3018 42.4437 50.0344C42.4437 53.7669 45.3813 56.7953 49.0022 56.7953C52.623 56.7953 55.5606 53.7669 55.5606 50.0344C55.5606 46.3018 52.623 43.2735 49.0022 43.2735ZM65.034 33.5077H59.9329L58.7715 30.3151C58.2022 28.7657 56.426 27.498 54.8319 27.498H43.1724C41.5784 27.498 39.8021 28.7657 39.2328 30.3151L38.0714 33.5077H32.9704C29.7595 33.5077 27.1406 36.2074 27.1406 39.5174V60.5513C27.1406 63.8613 29.7595 66.561 32.9704 66.561H65.034C68.2449 66.561 70.8637 63.8613 70.8637 60.5513V39.5174C70.8637 36.2074 68.2449 33.5077 65.034 33.5077ZM49.0022 60.5513C43.3774 60.5513 38.8001 55.8328 38.8001 50.0344C38.8001 44.236 43.3774 39.5174 49.0022 39.5174C54.6269 39.5174 59.2042 44.236 59.2042 50.0344C59.2042 55.8328 54.6269 60.5513 49.0022 60.5513Z" fill="#C9C9C9"/>
</svg>
